<?xml version="1.0" encoding="UTF-8"?>
<svg xmlns="http://www.w3.org/2000/svg" xmlns:xlink="http://www.w3.org/1999/xlink" width="46.961" height="47.724" viewBox="0 0 46.961 47.724">
  <defs>
    <clipPath id="clip-path">
      <rect id="Rectangle_13212" data-name="Rectangle 13212" width="46.961" height="47.723" fill="none" stroke="#fff" stroke-width="1.4"></rect>
    </clipPath>
  </defs>
  <g id="Group_51479" data-name="Group 51479" transform="translate(-85.039 -1693.138)">
    <g id="Group_49011" data-name="Group 49011" transform="translate(85.039 1693.139)">
      <g id="Group_49010" data-name="Group 49010" transform="translate(0 0)" clip-path="url(#clip-path)">
        <path id="Path_71376" data-name="Path 71376" d="M33.162,9.924a9.549,9.549,0,1,1-13.043,3.5A9.548,9.548,0,0,1,33.162,9.924Z" transform="translate(-2.745 -1.259)" fill="none" stroke="#fff" stroke-width="1.4"></path>
        <path id="Path_71377" data-name="Path 71377" d="M30.683,24.719,26.152,21h2.266a2.545,2.545,0,0,0,2.545-2.545V15.336" transform="translate(-3.811 -2.234)" fill="none" stroke="#fff" stroke-width="1.4"></path>
        <line id="Line_1" data-name="Line 1" x2="8.775" transform="translate(21.256 13.102)" fill="none" stroke="#fff" stroke-width="1.4"></line>
        <line id="Line_2" data-name="Line 2" x2="8.775" transform="translate(21.256 16.05)" fill="none" stroke="#fff" stroke-width="1.4"></line>
        <path id="Path_71378" data-name="Path 71378" d="M35.7,36.374,42.555,29.3a3.287,3.287,0,0,1,3.8,0,2.949,2.949,0,0,1,.643,3.636c-.869,1.8-8.943,10.649-8.943,10.649a8.9,8.9,0,0,1-6.339,2.412c-4.084-.032-11.871,0-11.871,0a5.885,5.885,0,0,0-4.017,2.418L6.849,39.753l.126-.355s4.441-8.493,15.04-5.147l10.954.032A3.12,3.12,0,0,1,35.7,37.436,2.816,2.816,0,0,1,33.259,40.3H22.433" transform="translate(-0.998 -4.176)" fill="none" stroke="#fff" stroke-width="1.4"></path>
        <path id="Path_71379" data-name="Path 71379" d="M15.951,51.136h0a6.232,6.232,0,0,1-8.811.159L.7,45.083,5.026,40.6Z" transform="translate(-0.102 -5.916)" fill="none" stroke="#fff" stroke-linejoin="round" stroke-width="1.4"></path>
        <line id="Line_3" data-name="Line 3" y1="4.583" transform="translate(25.706 0)" fill="none" stroke="#fff" stroke-linejoin="round" stroke-width="1.4"></line>
        <line id="Line_4" data-name="Line 4" x1="1.556" y1="4.311" transform="translate(19.631 0.965)" fill="none" stroke="#fff" stroke-linejoin="round" stroke-width="1.4"></line>
        <line id="Line_5" data-name="Line 5" y1="4.236" x2="1.75" transform="translate(29.906 1.002)" fill="none" stroke="#fff" stroke-linejoin="round" stroke-width="1.4"></line>
      </g>
    </g>
  </g>
</svg>
