<?xml version="1.0" encoding="UTF-8"?>
<svg xmlns="http://www.w3.org/2000/svg" width="47.068" height="37.866" viewBox="0 0 47.068 37.866">
  <g id="Group_49017" data-name="Group 49017" transform="translate(0.188 0.272)">
    <g id="Group_51482" data-name="Group 51482">
      <path id="Path_71384" data-name="Path 71384" d="M36.674,29.585A2.583,2.583,0,1,1,34.09,27,2.583,2.583,0,0,1,36.674,29.585Z" transform="translate(-5.064 -4.34)" fill="none" stroke="#fff" stroke-width="2"></path>
      <path id="Path_71385" data-name="Path 71385" d="M39.009,42.951V38.445a2.567,2.567,0,0,0-2.567-2.566H30.634a2.567,2.567,0,0,0-2.566,2.566v4.506" transform="translate(-4.512 -5.767)" fill="none" stroke="#fff" stroke-width="2"></path>
      <path id="Path_71386" data-name="Path 71386" d="M50.238,19.385A2.583,2.583,0,1,1,47.654,16.8,2.583,2.583,0,0,1,50.238,19.385Z" transform="translate(-7.245 -2.701)" fill="none" stroke="#fff" stroke-width="2"></path>
      <path id="Path_71387" data-name="Path 71387" d="M52.572,32.751V28.245A2.566,2.566,0,0,0,50,25.679H44.2a2.566,2.566,0,0,0-2.566,2.566v4.506" transform="translate(-6.692 -4.128)" fill="none" stroke="#fff" stroke-width="2"></path>
      <path id="Path_71388" data-name="Path 71388" d="M2.276,15.444H33.382a1.273,1.273,0,0,0,.791-2.271L19.548,1.6a2.768,2.768,0,0,0-3.437,0L1.486,13.173A1.273,1.273,0,0,0,2.276,15.444Z" transform="translate(-0.161 -0.161)" fill="none" stroke="#fff" stroke-width="2"></path>
      <rect id="Rectangle_13214" data-name="Rectangle 13214" width="4.009" height="21.311" transform="translate(4.299 15.283)" fill="none" stroke="#fff" stroke-width="2"></rect>
      <rect id="Rectangle_13215" data-name="Rectangle 13215" width="4.009" height="21.311" transform="translate(14.922 15.283)" fill="none" stroke="#fff" stroke-width="2"></rect>
      <path id="Path_71389" data-name="Path 71389" d="M23.192,10.316a2.306,2.306,0,1,1-2.305-2.305A2.306,2.306,0,0,1,23.192,10.316Z" transform="translate(-2.986 -1.288)" fill="none" stroke="#fff" stroke-width="2"></path>
      <line id="Line_7" data-name="Line 7" x2="36.041" transform="translate(0.839 36.594)" fill="none" stroke="#fff" stroke-width="2"></line>
    </g>
  </g>
</svg>
