<?xml version="1.0" encoding="UTF-8"?>
<svg xmlns="http://www.w3.org/2000/svg" xmlns:xlink="http://www.w3.org/1999/xlink" width="33.757" height="45.322" viewBox="0 0 33.757 45.322">
  <defs>
    <clipPath id="clip-path">
      <rect id="Rectangle_13219" data-name="Rectangle 13219" width="33.757" height="45.322" fill="none" stroke="#fff" stroke-width="1.6"></rect>
    </clipPath>
  </defs>
  <g id="Group_49019" data-name="Group 49019" transform="translate(0 0)">
    <g id="Group_49018" data-name="Group 49018" transform="translate(0 0)" clip-path="url(#clip-path)">
      <path id="Path_71390" data-name="Path 71390" d="M30.452,62.548H7.544a2.879,2.879,0,0,1-2.879-2.88v-17.1H33.332v17.1A2.88,2.88,0,0,1,30.452,62.548Z" transform="translate(-1.952 -17.808)" fill="none" stroke="#fff" stroke-width="1.6"></path>
      <rect id="Rectangle_13217" data-name="Rectangle 13217" width="32.256" height="6.573" transform="translate(0.919 18.187)" fill="none" stroke="#fff" stroke-width="1.6"></rect>
      <rect id="Rectangle_13218" data-name="Rectangle 13218" width="6.573" height="26.554" transform="translate(13.76 18.186)" fill="none" stroke="#fff" stroke-width="1.6"></rect>
      <path id="Path_71391" data-name="Path 71391" d="M14.1,28.221a4.235,4.235,0,1,1,8.47,0" transform="translate(-5.899 -10.034)" fill="none" stroke="#fff" stroke-width="1.6"></path>
      <path id="Path_71392" data-name="Path 71392" d="M28.664,28.221a4.235,4.235,0,1,1,8.47,0" transform="translate(-11.991 -10.034)" fill="none" stroke="#fff" stroke-width="1.6"></path>
      <path id="Path_71393" data-name="Path 71393" d="M25.406,1.112l1.322,2.679a.2.2,0,0,0,.151.109l2.956.429a.2.2,0,0,1,.111.341L27.807,6.756a.2.2,0,0,0-.058.177l.5,2.944a.2.2,0,0,1-.29.211L25.32,8.7a.2.2,0,0,0-.186,0l-2.644,1.39a.2.2,0,0,1-.29-.211l.5-2.944a.2.2,0,0,0-.058-.177L20.508,4.671a.2.2,0,0,1,.111-.341L23.575,3.9a.2.2,0,0,0,.15-.109l1.322-2.679A.2.2,0,0,1,25.406,1.112Z" transform="translate(-8.554 -0.418)" fill="none" stroke="#fff" stroke-width="1.6"></path>
      <path id="Path_71394" data-name="Path 71394" d="M45.559,6.629l1.322,2.679a.2.2,0,0,0,.151.109l2.956.429a.2.2,0,0,1,.111.341L47.96,12.273a.2.2,0,0,0-.058.177l.5,2.944a.2.2,0,0,1-.29.211l-2.644-1.39a.2.2,0,0,0-.186,0L42.643,15.6a.2.2,0,0,1-.29-.211l.5-2.944a.2.2,0,0,0-.058-.177l-2.139-2.085a.2.2,0,0,1,.111-.341l2.957-.429a.2.2,0,0,0,.15-.109L45.2,6.629A.2.2,0,0,1,45.559,6.629Z" transform="translate(-16.985 -2.726)" fill="none" stroke="#fff" stroke-width="1.6"></path>
      <path id="Path_71395" data-name="Path 71395" d="M5.959,7.944l1.322,2.679a.2.2,0,0,0,.151.109l2.956.429a.2.2,0,0,1,.111.341L8.36,13.588a.2.2,0,0,0-.058.177l.5,2.944a.2.2,0,0,1-.29.211L5.873,15.53a.2.2,0,0,0-.186,0L3.043,16.92a.2.2,0,0,1-.29-.211l.5-2.944a.2.2,0,0,0-.058-.177L1.06,11.5a.2.2,0,0,1,.111-.341l2.957-.429a.2.2,0,0,0,.15-.109L5.6,7.944A.2.2,0,0,1,5.959,7.944Z" transform="translate(-0.418 -3.277)" fill="none" stroke="#fff" stroke-width="1.6"></path>
    </g>
  </g>
</svg>
