<svg xmlns="http://www.w3.org/2000/svg" width="96" height="96" viewBox="0 0 96 96"><g id="Group_58" data-name="Group 58" transform="translate(-400.237 -3591.237)" fill="#903EA0"><circle id="Ellipse_1" data-name="Ellipse 1" cx="48" cy="48" r="48" transform="translate(400.237 3591.237)"></circle><g id="launch-2" transform="translate(423.145 3614.145)"><path id="Path_808" data-name="Path 808" d="M268.746,367.4l.454-1.588,1.527.437-.454,1.588Zm0,0" transform="translate(-242.074 -329.506)" fill="#fff"></path><path id="Path_809" data-name="Path 809" d="M246.373,398.784a5.472,5.472,0,0,1-1.647,2.6l1.051,1.19a7.069,7.069,0,0,0,2.123-3.357l.283-.99-1.527-.437Zm0,0" transform="translate(-220.438 -358.313)" fill="#fff"></path><path id="Path_810" data-name="Path 810" d="M29.957,244.56l1.534-.408.408,1.534-1.534.408Zm0,0" transform="translate(-26.984 -219.921)" fill="#fff"></path><path id="Path_811" data-name="Path 811" d="M60.883,236.35l1.534-.408.408,1.535-1.534.408Zm0,0" transform="translate(-54.84 -212.525)" fill="#fff"></path><path id="Path_812" data-name="Path 812" d="M91.82,228.15l1.534-.408.408,1.536-1.534.407Zm0,0" transform="translate(-82.707 -205.139)" fill="#fff"></path><path id="Path_813" data-name="Path 813" d="M2.34,467.928l1.588-1.588,1.123,1.123-1.588,1.588Zm0,0" transform="translate(-2.108 -420.057)" fill="#fff"></path><path id="Path_814" data-name="Path 814" d="M26.34,393.486l7.146-7.146,1.123,1.123-7.146,7.145Zm0,0" transform="translate(-23.726 -347.996)" fill="#fff"></path><path id="Path_815" data-name="Path 815" d="M66.34,451.931l1.588-1.588,1.123,1.123-1.588,1.588Zm0,0" transform="translate(-59.756 -405.648)" fill="#fff"></path><path id="Path_816" data-name="Path 816" d="M90.34,413.512l3.176-3.176,1.123,1.123-3.176,3.176Zm0,0" transform="translate(-81.374 -369.611)" fill="#fff"></path><path id="Path_817" data-name="Path 817" d="M18.34,403.931l1.588-1.588,1.123,1.123-1.588,1.588Zm0,0" transform="translate(-16.52 -362.412)" fill="#fff"></path><path id="Path_818" data-name="Path 818" d="M42.344,365.512l3.176-3.176,1.123,1.123-3.176,3.176Zm0,0" transform="translate(-38.141 -326.375)" fill="#fff"></path><path id="Path_819" data-name="Path 819" d="M46.265,23.842,47.4,21.956l-3.8-3.8a39.567,39.567,0,0,0,3.592-8.547l1.949-6.825A2.188,2.188,0,0,0,47,0a2.238,2.238,0,0,0-.485.054l-6.4,1.455A39.545,39.545,0,0,0,30.5,5.059L27.272,1.83,25.385,2.962a11.839,11.839,0,0,0-2-.827L22.851,0h-6l-.535,2.135a11.838,11.838,0,0,0-2,.827L12.427,1.831,8.181,6.076,9.314,7.962a11.786,11.786,0,0,0-.827,2L6.352,10.5v6l2.137.535a11.807,11.807,0,0,0,.488,1.256l-1.53.437A10.31,10.31,0,0,0,0,28.6v.9l10.781-1.361-1.4,2.977.779.779-1.6,3.2,5.574,5.574,3.2-1.6.81.81L21.122,38.2,19.744,49.227h.9a10.313,10.313,0,0,0,9.873-7.447l.435-1.524a11.7,11.7,0,0,0,1.241.482l.535,2.137h6l.535-2.135a11.838,11.838,0,0,0,2-.827l1.886,1.131L47.4,36.8l-1.133-1.886a11.786,11.786,0,0,0,.827-2l2.134-.534v-6l-2.135-.534A11.887,11.887,0,0,0,46.265,23.842Zm-5.8-20.783,6.4-1.455a.722.722,0,0,1,.174-.015.6.6,0,0,1,.576.763l-1.95,6.826c-.064.221-.143.437-.211.656a9.546,9.546,0,0,1-6.2-6.478C39.659,3.251,40.061,3.15,40.465,3.058ZM9.89,16.169l-.121-.451L7.94,15.26V11.736l1.829-.457.121-.451a10.231,10.231,0,0,1,1.027-2.485l.235-.4-.97-1.616,2.492-2.491L14.29,4.8l.4-.234a10.271,10.271,0,0,1,2.484-1.027l.451-.121.457-1.83h3.525l.457,1.829.451.121A10.24,10.24,0,0,1,25,4.565l.4.234,1.616-.969,2.028,2.028c-.946.548-1.873,1.132-2.772,1.758A8.645,8.645,0,0,0,19.85,4.764a8.725,8.725,0,0,0-7.8,12.648l-1.517.433A10.033,10.033,0,0,1,9.89,16.169Zm7.753-.355-.808.231A3.914,3.914,0,0,1,15.88,13.5a3.975,3.975,0,0,1,3.97-3.97,3.924,3.924,0,0,1,2.682,1.056c-.554.5-1.1,1-1.628,1.53A39.663,39.663,0,0,0,17.643,15.814Zm6.1-6.269A5.49,5.49,0,0,0,19.85,7.94,5.565,5.565,0,0,0,14.292,13.5a5.486,5.486,0,0,0,.9,3.017l-1.567.448A7.13,7.13,0,0,1,24.995,8.551Q24.357,9.034,23.741,9.545ZM1.636,27.693a8.722,8.722,0,0,1,6.246-7.439L16.136,17.9a39.54,39.54,0,0,0-3.064,5.367l-1.492,3.174ZM14.448,38.733l-3.954-3.954.85-1.7,4.8,4.8Zm-.571-5.367,5.941-5.28,1.323,1.324-5.28,5.941Zm3.108,3.108,6.338-7.129-3.441-3.44-7.129,6.338-1.459-1.459,3.217-6.844A37.965,37.965,0,0,1,37.732,3.79a11.141,11.141,0,0,0,7.239,7.556A38.066,38.066,0,0,1,36,25.6l-1.829,1.828a37.959,37.959,0,0,1-8.25,6.253L18.412,37.9Zm25.89-7.1a7.113,7.113,0,0,1-10.6,6.234l.447-1.565a5.5,5.5,0,0,0,3,.889A5.546,5.546,0,0,0,38.9,24.827c.349-.4.677-.812,1.009-1.224A7.168,7.168,0,0,1,42.875,29.377ZM35.3,28.549l1.828-1.829c.235-.234.45-.483.678-.722a3.967,3.967,0,0,1-2.075,7.349A3.912,3.912,0,0,1,33.2,32.4l.737-2.579C34.393,29.406,34.857,28.991,35.3,28.549ZM21.55,47.591l1.294-10.357,3.861-2.17a39.529,39.529,0,0,0,5.048-3.393l-2.764,9.671A8.719,8.719,0,0,1,21.55,47.591ZM47.639,31.139,45.81,31.6l-.121.451a10.23,10.23,0,0,1-1.027,2.485l-.235.4.97,1.616L42.9,39.044l-1.616-.969-.4.234A10.271,10.271,0,0,1,38.4,39.336l-.451.121-.457,1.83H33.966l-.457-1.829-.451-.121A10.025,10.025,0,0,1,31.4,38.7l.433-1.517a8.718,8.718,0,0,0,9.049-14.835c.585-.786,1.136-1.593,1.66-2.42l.367-.22L45.4,22.2l-.97,1.616.235.4a10.274,10.274,0,0,1,1.027,2.485l.121.451,1.829.457Zm0,0" fill="#fff"></path><path id="Path_820" data-name="Path 820" d="M228.07,313.186l1.588-.893.778,1.384-1.588.893Zm0,0" transform="translate(-205.435 -281.298)" fill="#fff"></path><path id="Path_821" data-name="Path 821" d="M265.686,267.241l-1.064-1.179a34.985,34.985,0,0,1-4.86,3.669l.842,1.346A36.5,36.5,0,0,0,265.686,267.241Zm0,0" transform="translate(-233.981 -239.656)" fill="#fff"></path><path id="Path_822" data-name="Path 822" d="M195.871,176.732l1.284.934q.457-.627.941-1.236l-1.242-.988Q196.348,176.075,195.871,176.732Zm0,0" transform="translate(-176.431 -158.029)" fill="#fff"></path><path id="Path_823" data-name="Path 823" d="M177.848,203.254l1.363.814q.4-.667.825-1.313l-1.324-.876Q178.264,202.557,177.848,203.254Zm0,0" transform="translate(-160.197 -181.843)" fill="#fff"></path><path id="Path_824" data-name="Path 824" d="M162.344,231.4l1.43.689q.338-.7.706-1.381l-1.4-.755Q162.7,230.666,162.344,231.4Zm0,0" transform="translate(-146.231 -207.131)" fill="#fff"></path><path id="Path_825" data-name="Path 825" d="M247.88,103.94a7.94,7.94,0,1,0-7.94,7.94A7.949,7.949,0,0,0,247.88,103.94Zm-14.292,0a6.352,6.352,0,1,1,6.352,6.352A6.359,6.359,0,0,1,233.588,103.94Zm0,0" transform="translate(-208.974 -86.472)" fill="#fff"></path><path id="Path_826" data-name="Path 826" d="M273.528,132.764a4.764,4.764,0,1,0-4.764,4.764A4.769,4.769,0,0,0,273.528,132.764Zm-7.94,0a3.176,3.176,0,1,1,3.176,3.176A3.179,3.179,0,0,1,265.588,132.764Zm0,0" transform="translate(-237.799 -115.296)" fill="#fff"></path></g></g></svg>