<svg xmlns="http://www.w3.org/2000/svg" fill="#95519e" width="96" height="96" viewBox="0 0 96 96"><g id="End-to-end_Automation" data-name="End-to-end Automation" transform="translate(2227 -610)"><g id="Extensibility_Beyond_Payment_Products" data-name="Extensibility Beyond Payment Products" transform="translate(161)"><g id="Configure_Easily" data-name="Configure Easily" transform="translate(-427 360)"><g id="Speed_Up_and_Save" data-name="Speed Up and Save" transform="translate(0 128)"><g id="Simplify_and_Optimize" data-name="Simplify and Optimize" transform="translate(124)"><g id="Stay_Relevant" data-name="Stay Relevant" transform="translate(132)"><g id="Drive_Revenue" data-name="Drive Revenue" transform="translate(132)"><g id="Co-innovate" transform="translate(-44 -52)"><g id="Group_121" data-name="Group 121" transform="translate(-2705.237 -3417.237)"><circle id="Ellipse_1" data-name="Ellipse 1" cx="48" cy="48" r="48" transform="translate(400.237 3591.237)"></circle></g></g></g></g></g></g></g></g><g id="automation" transform="translate(-2206 631)"><path id="Path_957" data-name="Path 957" d="M51.7,33.211l-2.1-.491a14.243,14.243,0,0,0-.425-1.589l1.566-1.468a.841.841,0,0,0,.192-.96,16.853,16.853,0,0,0-1.675-2.892.839.839,0,0,0-.927-.313l-2.037.619a14.259,14.259,0,0,0-1.172-1.171l.62-2.036a.841.841,0,0,0-.313-.926q-.678-.489-1.4-.909V6.2a4.207,4.207,0,0,0-4.2-4.2H6.2A4.207,4.207,0,0,0,2,6.2V28.053a4.207,4.207,0,0,0,4.2,4.2h8.886l-2.751,7.564H7.883a.84.84,0,0,0-.84.84,4.207,4.207,0,0,0,4.2,4.2H21.62c.123.186.233.38.363.561a.838.838,0,0,0,.927.313l2.037-.619a14.259,14.259,0,0,0,1.172,1.171l-.62,2.036a.841.841,0,0,0,.313.926A16.738,16.738,0,0,0,28.7,50.926a.838.838,0,0,0,.96-.192l1.467-1.567a14.065,14.065,0,0,0,1.59.425l.491,2.1a.841.841,0,0,0,.736.645c.566.056,1.129.085,1.669.085s1.1-.029,1.67-.084a.841.841,0,0,0,.736-.645l.491-2.1a14.113,14.113,0,0,0,1.59-.425l1.467,1.567a.84.84,0,0,0,.96.192,16.8,16.8,0,0,0,2.891-1.676.841.841,0,0,0,.313-.927l-.619-2.037a14.391,14.391,0,0,0,1.172-1.171l2.037.619a.842.842,0,0,0,.927-.313,16.844,16.844,0,0,0,1.675-2.892.839.839,0,0,0-.192-.96L49.17,40.1a14.208,14.208,0,0,0,.425-1.59l2.1-.491a.84.84,0,0,0,.645-.735c.055-.565.083-1.127.083-1.669s-.029-1.1-.085-1.671a.839.839,0,0,0-.645-.735ZM6.2,3.681H39.819A2.524,2.524,0,0,1,42.341,6.2V20.255a.835.835,0,0,0-.769.244L40.1,22.065a14.065,14.065,0,0,0-1.59-.425l-.491-2.1a.841.841,0,0,0-.736-.645,16.683,16.683,0,0,0-3.341,0,.841.841,0,0,0-.736.645l-.491,2.1a14.113,14.113,0,0,0-1.59.425L29.662,20.5a.842.842,0,0,0-.96-.192,16.8,16.8,0,0,0-2.891,1.676.841.841,0,0,0-.313.927l.287.941H8.723V13.766h8.4V12.085h-8.4V7.043H37.3V17.128h1.681V6.2a.84.84,0,0,0-.84-.84H7.883a.84.84,0,0,0-.84.84V23.851H3.681V6.2A2.524,2.524,0,0,1,6.2,3.681Zm19.33,21.851c-.195.195-.4.379-.586.585l-1.925-.585ZM3.681,28.053V25.532H22.346a.829.829,0,0,0-.363.279A16.844,16.844,0,0,0,20.308,28.7a.839.839,0,0,0,.192.96l.973.912H6.2a2.524,2.524,0,0,1-2.521-2.521Zm13.195,4.2H21.75c-.038.155-.078.308-.11.465l-2.1.491a.84.84,0,0,0-.645.735c-.055.566-.084,1.129-.084,1.671s.029,1.1.085,1.671a.84.84,0,0,0,.645.735l2.1.491c.091.441.217.874.349,1.305H14.126ZM11.245,43.181A2.526,2.526,0,0,1,8.867,41.5H20.575l-.076.071a.841.841,0,0,0-.192.96c.1.221.224.433.334.65Zm39.472-6.655L48.677,37a.84.84,0,0,0-.638.682,12.551,12.551,0,0,1-.632,2.362.84.84,0,0,0,.213.909l1.518,1.423a15.106,15.106,0,0,1-.91,1.572l-1.976-.6a.837.837,0,0,0-.893.27,12.686,12.686,0,0,1-1.739,1.739.841.841,0,0,0-.27.893l.6,1.976a15.38,15.38,0,0,1-1.572.911L40.957,47.62a.839.839,0,0,0-.909-.212,12.567,12.567,0,0,1-2.363.632.84.84,0,0,0-.682.638l-.476,2.04a14.591,14.591,0,0,1-1.819,0l-.476-2.04a.839.839,0,0,0-.682-.638,12.649,12.649,0,0,1-2.363-.632.84.84,0,0,0-.909.212l-1.422,1.519a15.038,15.038,0,0,1-1.572-.911l.6-1.975a.843.843,0,0,0-.27-.893,12.687,12.687,0,0,1-1.739-1.739.84.84,0,0,0-.893-.27l-1.976.6a15.2,15.2,0,0,1-.911-1.572l1.519-1.423a.84.84,0,0,0,.213-.909,12.576,12.576,0,0,1-.632-2.363A.839.839,0,0,0,22.559,37l-2.04-.477c-.02-.308-.03-.612-.03-.909s.01-.6.029-.909l2.04-.477a.84.84,0,0,0,.638-.682,12.517,12.517,0,0,1,.632-2.362.84.84,0,0,0-.212-.909L22.1,28.855a15.194,15.194,0,0,1,.91-1.572l1.976.6a.842.842,0,0,0,.893-.27,12.733,12.733,0,0,1,1.739-1.739.841.841,0,0,0,.27-.893l-.6-1.976a15.38,15.38,0,0,1,1.572-.911l1.422,1.519a.84.84,0,0,0,.909.212,12.567,12.567,0,0,1,2.363-.632.84.84,0,0,0,.682-.638l.476-2.04a14.591,14.591,0,0,1,1.819,0L37,22.555a.839.839,0,0,0,.682.638,12.649,12.649,0,0,1,2.363.632.842.842,0,0,0,.909-.212l1.422-1.519a15.039,15.039,0,0,1,1.572.911l-.6,1.975a.843.843,0,0,0,.27.893,12.686,12.686,0,0,1,1.739,1.739.838.838,0,0,0,.893.27l1.976-.6a15.2,15.2,0,0,1,.911,1.572l-1.519,1.423a.84.84,0,0,0-.213.909,12.576,12.576,0,0,1,.632,2.363.839.839,0,0,0,.638.682l2.04.477c.02.309.03.614.03.91s-.01.6-.029.909Z" fill="#fff"></path><path id="Path_958" data-name="Path 958" d="M46.766,40.883a5.883,5.883,0,1,0-5.883,5.883A5.89,5.89,0,0,0,46.766,40.883Zm-5.883,4.2a4.2,4.2,0,1,1,4.2-4.2A4.207,4.207,0,0,1,40.883,45.085Z" transform="translate(-5.266 -5.266)" fill="#fff"></path><path id="Path_959" data-name="Path 959" d="M33.461,35.955,32.1,34.969a10.058,10.058,0,0,0-.925,1.553l1.515.727A8.413,8.413,0,0,1,33.461,35.955Z" transform="translate(-4.655 -5.261)" fill="#fff"></path><path id="Path_960" data-name="Path 960" d="M41.166,31.693l-.079-1.679a10.181,10.181,0,0,0-1.791.245l.377,1.638A8.5,8.5,0,0,1,41.166,31.693Z" transform="translate(-5.951 -4.47)" fill="#fff"></path><path id="Path_961" data-name="Path 961" d="M49.252,32.593l-1.045,1.316A8.523,8.523,0,0,1,49.3,34.948l1.261-1.111a10.293,10.293,0,0,0-1.309-1.244Z" transform="translate(-7.373 -4.882)" fill="#fff"></path><path id="Path_962" data-name="Path 962" d="M32.056,44.681l-1.62.447a9.912,9.912,0,0,0,.638,1.692l1.514-.732a8.33,8.33,0,0,1-.531-1.407Z" transform="translate(-4.537 -6.81)" fill="#fff"></path><path id="Path_963" data-name="Path 963" d="M36.8,32.923,36,31.446a10.224,10.224,0,0,0-1.5,1l1.052,1.311a8.417,8.417,0,0,1,1.254-.834Z" transform="translate(-5.185 -4.699)" fill="#fff"></path><path id="Path_964" data-name="Path 964" d="M51.841,43.494l1.655.3a10.182,10.182,0,0,0,.16-1.8v-.036l-1.681.036A8.492,8.492,0,0,1,51.841,43.494Z" transform="translate(-7.953 -6.376)" fill="#fff"></path><path id="Path_965" data-name="Path 965" d="M42.459,51.952l.076,1.679a10.176,10.176,0,0,0,1.792-.242l-.374-1.639a8.478,8.478,0,0,1-1.493.2Z" transform="translate(-6.456 -7.938)" fill="#fff"></path><path id="Path_966" data-name="Path 966" d="M50.094,47.63l1.359.989a10.083,10.083,0,0,0,.928-1.551l-1.514-.729a8.54,8.54,0,0,1-.773,1.292Z" transform="translate(-7.674 -7.075)" fill="#fff"></path><path id="Path_967" data-name="Path 967" d="M51.53,38.894l1.62-.45a9.881,9.881,0,0,0-.643-1.692L51,37.489A8.213,8.213,0,0,1,51.53,38.894Z" transform="translate(-7.818 -5.545)" fill="#fff"></path><path id="Path_968" data-name="Path 968" d="M46.745,50.647l.8,1.479a10.042,10.042,0,0,0,1.507-1L48,49.816A8.5,8.5,0,0,1,46.745,50.647Z" transform="translate(-7.14 -7.63)" fill="#fff"></path><path id="Path_969" data-name="Path 969" d="M37.295,52.749a10.013,10.013,0,0,0,1.722.556l.369-1.64a8.267,8.267,0,0,1-1.431-.463Z" transform="translate(-5.632 -7.851)" fill="#fff"></path><path id="Path_970" data-name="Path 970" d="M34.239,48.59,32.975,49.7a10.143,10.143,0,0,0,1.309,1.247l1.045-1.315a8.331,8.331,0,0,1-1.09-1.04Z" transform="translate(-4.943 -7.434)" fill="#fff"></path><path id="Path_971" data-name="Path 971" d="M46.286,30.843a9.967,9.967,0,0,0-1.723-.553l-.368,1.64a8.271,8.271,0,0,1,1.432.461Z" transform="translate(-6.733 -4.514)" fill="#fff"></path><path id="Path_972" data-name="Path 972" d="M31.811,40.178l-1.655-.295A10.14,10.14,0,0,0,30,41.662v.018l1.681-.018A8.571,8.571,0,0,1,31.811,40.178Z" transform="translate(-4.468 -6.045)" fill="#fff"></path><path id="Path_973" data-name="Path 973" d="M35.041,11.293l-1.188,1.188,1.927,1.927H25.2a4.207,4.207,0,0,0-4.2,4.2v5.043h1.681V18.611A2.524,2.524,0,0,1,25.2,16.089H35.78l-1.927,1.927L35.041,19.2,38.4,15.843a.839.839,0,0,0,0-1.188Z" transform="translate(-3.032 -1.483)" fill="#fff"></path><path id="Path_974" data-name="Path 974" d="M12,10h1.681v1.681H12Z" transform="translate(-1.596 -1.277)" fill="#fff"></path><path id="Path_975" data-name="Path 975" d="M16,10h1.681v1.681H16Z" transform="translate(-2.234 -1.277)" fill="#fff"></path><path id="Path_976" data-name="Path 976" d="M20,10h1.681v1.681H20Z" transform="translate(-2.872 -1.277)" fill="#fff"></path></g></g></svg>