<svg xmlns="http://www.w3.org/2000/svg" width="40" height="39" viewBox="0 0 40 39"><g id="noun-bank-1010504" transform="translate(-159.595 -107.806)"><rect id="Rectangle_12226" data-name="Rectangle 12226" width="40" height="39" rx="5" transform="translate(159.595 107.806)" fill="#95519e"></rect><g id="noun-dynamic-5737371" transform="translate(71.511 72.53)"><path id="Path_70056" data-name="Path 70056" d="M227.5,148.209a6.926,6.926,0,0,0,.731,1.764,1.685,1.685,0,0,1,2.365,2.365,7,7,0,0,0,1.764.731,1.687,1.687,0,0,1,3.349,0,6.926,6.926,0,0,0,1.764-.731,1.685,1.685,0,0,1,2.365-2.365,7,7,0,0,0,.731-1.764,1.687,1.687,0,0,1,0-3.349,6.926,6.926,0,0,0-.731-1.764,1.685,1.685,0,0,1-2.365-2.365,7,7,0,0,0-1.764-.731,1.687,1.687,0,0,1-3.349,0,6.926,6.926,0,0,0-1.764.731,1.685,1.685,0,0,1-2.365,2.365,7,7,0,0,0-.731,1.764,1.687,1.687,0,0,1,0,3.349Zm6.534-4.533a2.859,2.859,0,1,1-2.859,2.859A2.857,2.857,0,0,1,234.034,143.676Z" transform="translate(-125.133 -91.758)" fill="#fff"></path><path id="Path_70057" data-name="Path 70057" d="M108.9,43.75A11,11,0,0,0,99.908,48.4l1.519,2.173a8.573,8.573,0,1,1-1.1,4.2c0-.139,0-.274.012-.408h1.621L99.1,50.285l-2.859,4.084h1.642c0,.135-.008.274-.008.408A11.027,11.027,0,1,0,108.9,43.75Z" fill="#fff"></path></g></g></svg>