<svg xmlns="http://www.w3.org/2000/svg" width="96" height="96" viewBox="0 0 96 96"><g id="Group_58" data-name="Group 58" transform="translate(-400.237 -3591.237)" fill="#903EA0"><circle id="Ellipse_1" data-name="Ellipse 1" cx="48" cy="48" r="48" transform="translate(400.237 3591.237)"></circle><g id="tax" transform="translate(418.385 3609.385)"><path id="Path_801" data-name="Path 801" d="M56.668,28.113l1.856-.446a12.48,12.48,0,0,0-.692-2.066l-1.75.764A10.3,10.3,0,0,1,56.668,28.113Z" transform="translate(-3.513 -2.123)" fill="#fff"></path><path id="Path_802" data-name="Path 802" d="M56.582,30.754v.2A10.463,10.463,0,0,1,47.834,41.3l.317,1.883A12.369,12.369,0,0,0,58.49,30.951v-.2c0-.274-.01-.547-.027-.82l-1.9.127C56.574,30.291,56.582,30.523,56.582,30.754Z" transform="translate(-3.137 -2.32)" fill="#fff"></path><path id="Path_803" data-name="Path 803" d="M56.412,19.046l-5.581-6.7,3.111-5.445a3.837,3.837,0,0,0,.5-1.894V4.817A3.821,3.821,0,0,0,50.627,1a3.035,3.035,0,0,0-2.39,1.281c-.416.474-.582.628-.953.628s-.537-.154-.954-.629a2.868,2.868,0,0,0-4.777,0c-.414.474-.58.628-.951.628s-.535-.154-.95-.628A3.03,3.03,0,0,0,37.266,1a3.821,3.821,0,0,0-3.817,3.817v.194a3.831,3.831,0,0,0,.5,1.893l3.111,5.445-2.174,2.608A16.19,16.19,0,0,0,16.84,39.164l-2.478,2.479-.9-.9L3.214,49.289a6.154,6.154,0,1,0,8.668,8.669l8.542-10.252-.9-.9,2.478-2.478a16.136,16.136,0,0,0,16.333.5,16.171,16.171,0,0,0,21.831-15.2v-.2a16.266,16.266,0,0,0-3.759-10.387ZM35.357,5.011V4.817a1.911,1.911,0,0,1,1.909-1.909c.37,0,.535.154.95.628a2.865,2.865,0,0,0,4.775,0c.415-.474.58-.628.951-.628s.536.154.953.628a2.87,2.87,0,0,0,4.779,0c.417-.475.582-.629.954-.629a1.911,1.911,0,0,1,1.909,1.909v.194a1.907,1.907,0,0,1-.252.947L49.119,11.5H38.774l-3.166-5.54a1.914,1.914,0,0,1-.251-.947ZM10.415,56.734a4.245,4.245,0,1,1-5.978-5.978l8.912-7.427,4.494,4.494ZM18.179,45.46l-2.468-2.468,2.246-2.246a16.354,16.354,0,0,0,2.468,2.468ZM16.27,30.585A14.316,14.316,0,1,1,30.585,44.9,14.332,14.332,0,0,1,16.27,30.585Zm41.992-.954A14.252,14.252,0,0,1,40.393,43.48a16.2,16.2,0,0,0-3.564-27.866l1.839-2.207H49.225l5.719,6.861a14.346,14.346,0,0,1,3.318,9.166Z" transform="translate(-1 -1)" fill="#fff"></path><path id="Path_804" data-name="Path 804" d="M31.407,19A12.407,12.407,0,1,0,43.814,31.407,12.421,12.421,0,0,0,31.407,19Zm0,22.9a10.5,10.5,0,1,1,10.5-10.5A10.51,10.51,0,0,1,31.407,41.9Z" transform="translate(-1.821 -1.821)" fill="#fff"></path><path id="Path_805" data-name="Path 805" d="M31.817,26.817a1.911,1.911,0,0,1,1.909,1.909h1.909a3.812,3.812,0,0,0-2.863-3.682V23H30.863v1.909H28v3.817a3.821,3.821,0,0,0,3.817,3.817,1.911,1.911,0,0,1,1.909,1.909v1.909H31.817a1.911,1.911,0,0,1-1.909-1.909H28a3.812,3.812,0,0,0,2.863,3.682v2.044h1.909V38.27h2.863V34.452a3.821,3.821,0,0,0-3.817-3.817,1.911,1.911,0,0,1-1.909-1.909V26.817Z" transform="translate(-2.232 -2.004)" fill="#fff"></path><path id="Path_806" data-name="Path 806" d="M39,31h1.909v1.909H39Z" transform="translate(-2.734 -2.369)" fill="#fff"></path><path id="Path_807" data-name="Path 807" d="M23,31h1.909v1.909H23Z" transform="translate(-2.004 -2.369)" fill="#fff"></path><ellipse id="Ellipse_2" data-name="Ellipse 2" cx="0.622" cy="1.245" rx="0.622" ry="1.245" transform="translate(4.401 52.947)" fill="#fff"></ellipse></g></g></svg>