<svg xmlns="http://www.w3.org/2000/svg" width="40" height="39" viewBox="0 0 40 39"><g id="noun-bank-1010504" transform="translate(-159.595 -107.806)"><rect id="Rectangle_12226" data-name="Rectangle 12226" width="40" height="39" rx="5" transform="translate(159.595 107.806)" fill="#95519e"></rect><g id="noun-billing-1736725" transform="translate(37.663 114.826)"><path id="Path_70059" data-name="Path 70059" d="M150.368,6.242H145.4V1.27Zm1.268,1.386v17.33H132.227V0h11.785V7.628Zm-9.7,4.853c0-.078-.034-1.8-2.773-2.049V8.321h-1.386v2.111c-2.738.25-2.773,1.971-2.773,2.049v1.386c0,.788.754,2.079,3.463,2.079h0c1.568,0,2.047.479,2.079.693v1.348c-.034.253-.513.732-2.081.732s-2.047-.479-2.079-.693V16.64H135v1.386c0,.078.034,1.8,2.773,2.049v2.109h1.386V20.075c2.739-.25,2.773-1.971,2.773-2.049V16.64c0-.835-.8-2.079-3.463-2.079h0c-1.568,0-2.047-.479-2.079-.693V12.52c.034-.253.513-.732,2.081-.732s2.047.478,2.079.693v1.386h1.386Zm6.932,8.318h-5.545v1.386h5.545V20.8Zm0-2.772h-5.545v1.386h5.545V18.026Zm0-2.773h-5.545V16.64h5.545V15.253Z" fill="#fff"></path></g></g></svg>