<svg xmlns="http://www.w3.org/2000/svg" fill="#95519e" width="96" height="96" viewBox="0 0 96 96"><g id="Configuration_Enabled_for_Easy_Adaption" data-name="Configuration Enabled for Easy Adaption" transform="translate(1961 -250)"><g id="Speed_Up_and_Save" data-name="Speed Up and Save" transform="translate(0 128)"><g id="Simplify_and_Optimize" data-name="Simplify and Optimize" transform="translate(124)"><g id="Stay_Relevant" data-name="Stay Relevant" transform="translate(132)"><g id="Drive_Revenue" data-name="Drive Revenue" transform="translate(132)"><g id="Co-innovate" transform="translate(-44 -52)"><g id="Group_121" data-name="Group 121" transform="translate(-2705.237 -3417.237)"><circle id="Ellipse_1" data-name="Ellipse 1" cx="48" cy="48" r="48" transform="translate(400.237 3591.237)"></circle></g></g></g></g></g></g><g id="gear" transform="translate(-1939 272)"><path id="Path_934" data-name="Path 934" d="M51.155,23.126h-1.1a23.792,23.792,0,0,0-4.648-11.208,3.249,3.249,0,0,0-4.572-4.573A23.793,23.793,0,0,0,29.628,2.7V1.6a1.6,1.6,0,0,0-1.6-1.6h-3.3a1.6,1.6,0,0,0-1.6,1.6V2.7A23.791,23.791,0,0,0,11.918,7.346a3.249,3.249,0,0,0-4.572,4.573A23.791,23.791,0,0,0,2.7,23.126H1.6a1.6,1.6,0,0,0-1.6,1.6v3.3a1.6,1.6,0,0,0,1.6,1.6H2.7A23.792,23.792,0,0,0,7.346,40.835a3.249,3.249,0,0,0,4.572,4.573,23.793,23.793,0,0,0,11.208,4.648v1.1a1.6,1.6,0,0,0,1.6,1.6h3.3a1.6,1.6,0,0,0,1.6-1.6v-1.1a23.79,23.79,0,0,0,11.208-4.648,3.249,3.249,0,0,0,4.572-4.573,23.791,23.791,0,0,0,4.648-11.208h1.1a1.6,1.6,0,0,0,1.6-1.6v-3.3a1.6,1.6,0,0,0-1.6-1.6ZM42.9,8.153a1.705,1.705,0,1,1-1.705,1.705A1.707,1.707,0,0,1,42.9,8.153ZM24.725,1.546h3.3a.053.053,0,0,1,.053.053V4.9a.053.053,0,0,1-.053.053h-3.3a.053.053,0,0,1-.053-.053V1.6a.053.053,0,0,1,.053-.053ZM9.858,8.153A1.705,1.705,0,1,1,8.153,9.858,1.707,1.707,0,0,1,9.858,8.153ZM1.545,28.029v-3.3a.053.053,0,0,1,.053-.053H4.9a.053.053,0,0,1,.053.053v3.3a.053.053,0,0,1-.053.053H1.6A.053.053,0,0,1,1.545,28.029ZM9.858,44.6A1.705,1.705,0,1,1,11.563,42.9,1.707,1.707,0,0,1,9.858,44.6Zm18.171,6.607h-3.3a.053.053,0,0,1-.053-.053v-3.3a.053.053,0,0,1,.053-.053h3.3a.053.053,0,0,1,.053.053v3.3A.053.053,0,0,1,28.029,51.208ZM42.9,44.6A1.705,1.705,0,1,1,44.6,42.9,1.707,1.707,0,0,1,42.9,44.6Zm1.277-4.694a3.25,3.25,0,0,0-4.266,4.266A22.248,22.248,0,0,1,29.627,48.5v-.644a1.6,1.6,0,0,0-1.6-1.6H27.15V42.9a.773.773,0,1,0-1.546,0v3.357h-.879a1.6,1.6,0,0,0-1.6,1.6V48.5a22.249,22.249,0,0,1-10.279-4.323,3.25,3.25,0,0,0-4.266-4.266A22.25,22.25,0,0,1,4.258,29.627H4.9a1.6,1.6,0,0,0,1.6-1.6V27.15H9.858a.773.773,0,1,0,0-1.546H6.5v-.879a1.6,1.6,0,0,0-1.6-1.6H4.258A22.249,22.249,0,0,1,8.581,12.847a3.25,3.25,0,0,0,4.266-4.266A22.248,22.248,0,0,1,23.126,4.259V4.9a1.6,1.6,0,0,0,1.6,1.6H25.6V9.858a.773.773,0,0,0,1.546,0V6.5h.879a1.6,1.6,0,0,0,1.6-1.6V4.259A22.248,22.248,0,0,1,39.906,8.582a3.25,3.25,0,0,0,4.266,4.266,22.249,22.249,0,0,1,4.323,10.279h-.644a1.6,1.6,0,0,0-1.6,1.6V25.6H42.9a.773.773,0,0,0,0,1.546h3.357v.879a1.6,1.6,0,0,0,1.6,1.6h.644A22.246,22.246,0,0,1,44.172,39.906Zm7.036-11.878a.053.053,0,0,1-.053.053h-3.3a.053.053,0,0,1-.053-.053v-3.3a.053.053,0,0,1,.053-.053h3.3a.053.053,0,0,1,.053.053Z" fill="#fff"></path><path id="Path_935" data-name="Path 935" d="M147.4,131.7l-2-.236a11.37,11.37,0,0,0-1.313-3.176l1.248-1.581a.773.773,0,0,0,.008-.948,12.689,12.689,0,0,0-2.64-2.64.773.773,0,0,0-.948.008l-1.581,1.248a11.37,11.37,0,0,0-3.176-1.313l-.236-2a.773.773,0,0,0-.665-.676,12.693,12.693,0,0,0-3.734,0,.773.773,0,0,0-.665.676l-.236,2a11.37,11.37,0,0,0-3.176,1.313l-1.581-1.248a.773.773,0,0,0-.948-.008,12.686,12.686,0,0,0-2.64,2.64.773.773,0,0,0,.008.948l1.248,1.581a11.37,11.37,0,0,0-1.313,3.176l-2,.236a.773.773,0,0,0-.676.665,12.683,12.683,0,0,0,0,3.734.773.773,0,0,0,.676.665l2,.236a11.37,11.37,0,0,0,1.313,3.176l-1.248,1.581a.773.773,0,0,0-.008.948,12.681,12.681,0,0,0,2.64,2.64.773.773,0,0,0,.948-.008l1.581-1.248a11.37,11.37,0,0,0,3.176,1.313l.236,2a.773.773,0,0,0,.665.676,12.691,12.691,0,0,0,3.734,0,.773.773,0,0,0,.665-.676l.236-2a11.371,11.371,0,0,0,3.176-1.313l1.581,1.248a.773.773,0,0,0,.948.008,12.686,12.686,0,0,0,2.64-2.64.773.773,0,0,0-.008-.948l-1.248-1.581A11.364,11.364,0,0,0,145.4,137l2-.236a.773.773,0,0,0,.676-.665,12.683,12.683,0,0,0,0-3.734A.772.772,0,0,0,147.4,131.7Zm-.787,3.6-1.943.229a.773.773,0,0,0-.668.62,9.858,9.858,0,0,1-1.506,3.643.773.773,0,0,0,.034.911l1.21,1.533c-.246.3-.479.558-.716.795s-.5.471-.794.716l-1.533-1.21a.773.773,0,0,0-.911-.034A9.861,9.861,0,0,1,136.143,144a.773.773,0,0,0-.62.668l-.229,1.943c-.385.037-.733.055-1.068.055s-.684-.018-1.068-.055l-.229-1.943a.773.773,0,0,0-.62-.668,9.861,9.861,0,0,1-3.643-1.506.773.773,0,0,0-.911.034l-1.533,1.21c-.3-.246-.557-.479-.794-.716s-.471-.5-.716-.795l1.21-1.533a.773.773,0,0,0,.034-.911,9.859,9.859,0,0,1-1.506-3.643.773.773,0,0,0-.668-.62l-1.943-.229c-.038-.385-.055-.733-.055-1.068s.018-.683.055-1.068l1.943-.229a.773.773,0,0,0,.668-.62,9.859,9.859,0,0,1,1.506-3.643.773.773,0,0,0-.034-.911l-1.21-1.533c.246-.3.479-.558.716-.794s.5-.471.795-.716l1.533,1.21a.773.773,0,0,0,.911.034,9.861,9.861,0,0,1,3.643-1.506.773.773,0,0,0,.62-.668l.229-1.943c.385-.037.733-.055,1.068-.055s.684.018,1.068.055l.229,1.943a.773.773,0,0,0,.62.668,9.861,9.861,0,0,1,3.643,1.506.773.773,0,0,0,.911-.034l1.533-1.21c.3.246.558.479.794.716s.471.5.716.794l-1.21,1.533a.773.773,0,0,0-.034.911A9.858,9.858,0,0,1,144,132.312a.773.773,0,0,0,.668.62l1.943.229c.038.385.055.733.055,1.068S146.651,134.912,146.613,135.3Z" transform="translate(-107.849 -107.852)" fill="#fff"></path><path id="Path_936" data-name="Path 936" d="M198.94,193.933a5.015,5.015,0,0,1,2.382.6.773.773,0,1,0,.736-1.359,6.556,6.556,0,0,0-8.884,8.884.773.773,0,0,0,1.359-.736,5.01,5.01,0,0,1,4.407-7.391Z" transform="translate(-172.564 -172.565)" fill="#fff"></path><path id="Path_937" data-name="Path 937" d="M230.047,221.9a.773.773,0,0,0-.311,1.048,5.01,5.01,0,0,1-6.789,6.789.773.773,0,1,0-.736,1.359,6.556,6.556,0,0,0,8.884-8.884A.773.773,0,0,0,230.047,221.9Z" transform="translate(-198.952 -198.951)" fill="#fff"></path></g></g></svg>