<svg xmlns="http://www.w3.org/2000/svg" id="Layer_2" data-name="Layer 2" viewBox="0 0 120 120"><defs><style>.cls-1,.cls-2{fill:none;}.cls-1,.cls-2,.cls-3{stroke:#020202;stroke-miterlimit:10;stroke-width:0.85px;}.cls-1{stroke-linecap:round;}.cls-3{fill:#fff;}</style></defs><path class="cls-1" d="M90,82a18,18,0,0,0,7.27,0h.07a19,19,0,0,0-3.71-37.64c-.46,0-.9.11-1.36.14A22.13,22.13,0,0,0,51,28.58,19,19,0,0,0,21.47,44.39c0,.24.06.46.07.7A19,19,0,0,0,26.37,82.4"></path><rect class="cls-2" x="36.79" y="74.89" width="46.41" height="30.31" rx="1.67"></rect><path class="cls-2" d="M75.24,75.83V62.36a13.7,13.7,0,0,0-13.7-13.7H58.46a13.7,13.7,0,0,0-13.7,13.7V74.89"></path><rect class="cls-3" x="57.43" y="90.04" width="5.14" height="6.59"></rect><circle class="cls-3" cx="60" cy="86.67" r="5.47"></circle></svg>