<svg xmlns="http://www.w3.org/2000/svg" fill="#95519e" width="96" height="96" viewBox="0 0 96 96"><g id="Extensibility_Beyond_Payment_Products" data-name="Extensibility Beyond Payment Products" transform="translate(2388 -610)"><g id="Configure_Easily" data-name="Configure Easily" transform="translate(-427 360)"><g id="Speed_Up_and_Save" data-name="Speed Up and Save" transform="translate(0 128)"><g id="Simplify_and_Optimize" data-name="Simplify and Optimize" transform="translate(124)"><g id="Stay_Relevant" data-name="Stay Relevant" transform="translate(132)"><g id="Drive_Revenue" data-name="Drive Revenue" transform="translate(132)"><g id="Co-innovate" transform="translate(-44 -52)"><g id="Group_121" data-name="Group 121" transform="translate(-2705.237 -3417.237)"><circle id="Ellipse_1" data-name="Ellipse 1" cx="48" cy="48" r="48" transform="translate(400.237 3591.237)"></circle></g></g></g></g></g></g></g><g id="taxes" transform="translate(-2364 634)"><path id="Path_938" data-name="Path 938" d="M273.638,194.457H256v1.6h18.44a.8.8,0,0,0,.8-.8V168h-1.6Z" transform="translate(-230.345 -151.164)" fill="#fff"></path><path id="Path_939" data-name="Path 939" d="M105.6,49.6h18.44V48H104.8a.8.8,0,0,0-.8.8v8.819h1.6Z" transform="translate(-93.578 -43.19)" fill="#fff"></path><path id="Path_940" data-name="Path 940" d="M23.25,174.431h-1.6V160.8a.8.8,0,0,0-.8-.8H3.207a.8.8,0,0,0-.8.8v13.629H.8a.8.8,0,0,0-.8.8v16.035a.8.8,0,0,0,.8.8H23.25a.8.8,0,0,0,.8-.8V175.233A.8.8,0,0,0,23.25,174.431ZM9.621,161.6h4.81v3.207H9.621Zm-5.612,0H8.017v4.009a.8.8,0,0,0,.8.8h6.414a.8.8,0,0,0,.8-.8V161.6h4.009v12.828H4.009Zm5.612,14.431h4.81v3.207H9.621Zm12.828,14.431H1.6V176.035H8.017v4.009a.8.8,0,0,0,.8.8h6.414a.8.8,0,0,0,.8-.8v-4.009h6.414Z" transform="translate(0 -143.965)" fill="#fff"></path><path id="Path_941" data-name="Path 941" d="M192,432h1.6v1.6H192Z" transform="translate(-172.759 -388.707)" fill="#fff"></path><path id="Path_942" data-name="Path 942" d="M160,432h1.6v1.6H160Z" transform="translate(-143.965 -388.707)" fill="#fff"></path><path id="Path_943" data-name="Path 943" d="M168,272h1.6v1.6H168Z" transform="translate(-151.164 -244.741)" fill="#fff"></path><path id="Path_944" data-name="Path 944" d="M136,272h1.6v1.6H136Z" transform="translate(-122.371 -244.741)" fill="#fff"></path><path id="Path_945" data-name="Path 945" d="M249.638,184.8a.8.8,0,0,0-.8-.8H232v1.6h10.422v2.405H232v1.6h10.422v2.405H232v1.6h10.422v2.405h-8.017v1.6h8.017v2.405h-8.017v1.6h14.431a.8.8,0,0,0,.8-.8Zm-5.612.8h4.009v2.405h-4.009Zm0,4.009h4.009v2.405h-4.009Zm0,4.009h4.009v2.405h-4.009Zm0,6.414v-2.405h4.009v2.405Z" transform="translate(-208.75 -165.56)" fill="#fff"></path><path id="Path_946" data-name="Path 946" d="M144,88h1.6v1.6H144Z" transform="translate(-129.569 -79.181)" fill="#fff"></path><path id="Path_947" data-name="Path 947" d="M176,88h10.422v1.6H176Z" transform="translate(-158.362 -79.181)" fill="#fff"></path><path id="Path_948" data-name="Path 948" d="M144,120h13.629v1.6H144Z" transform="translate(-129.569 -107.974)" fill="#fff"></path><path id="Path_949" data-name="Path 949" d="M392,392h1.6v1.6H392Z" transform="translate(-352.715 -352.715)" fill="#fff"></path><path id="Path_950" data-name="Path 950" d="M360,392h1.6v1.6H360Z" transform="translate(-323.922 -352.715)" fill="#fff"></path><path id="Path_951" data-name="Path 951" d="M0,0H6.8V1.6H0Z" transform="translate(37.11 9.859) rotate(-45)" fill="#fff"></path><path id="Path_952" data-name="Path 952" d="M368,48h1.6v1.6H368Z" transform="translate(-331.12 -43.19)" fill="#fff"></path><path id="Path_953" data-name="Path 953" d="M416,96h1.6v1.6H416Z" transform="translate(-374.31 -86.379)" fill="#fff"></path><path id="Path_954" data-name="Path 954" d="M328.017,0a8.017,8.017,0,1,0,8.017,8.017A8.017,8.017,0,0,0,328.017,0Zm0,14.431a6.414,6.414,0,1,1,6.414-6.414A6.414,6.414,0,0,1,328.017,14.431Z" transform="translate(-287.931)" fill="#fff"></path><path id="Path_955" data-name="Path 955" d="M464,200h1.6v17.638H464Z" transform="translate(-417.5 -179.957)" fill="#fff"></path><path id="Path_956" data-name="Path 956" d="M464,392h1.6v1.6H464Z" transform="translate(-417.5 -352.715)" fill="#fff"></path></g></g></svg>