<svg xmlns="http://www.w3.org/2000/svg" width="40" height="39" viewBox="0 0 40 39"><g id="noun-bank-1010504" transform="translate(-159.595 -107.806)"><rect id="Rectangle_12226" data-name="Rectangle 12226" width="40" height="39" rx="5" transform="translate(159.595 107.806)" fill="#95519e"></rect><g id="noun-pricing-427289" transform="translate(85.779 87.516)"><path id="Path_70061" data-name="Path 70061" d="M84.977,52.334l10.745.476a5.909,5.909,0,0,0,3.363-.566l.3-.149,8.126-4.762a1.319,1.319,0,0,0,.685-1.1,1.086,1.086,0,0,0-1.072-1.19,5.463,5.463,0,0,0-1.994.744,34.6,34.6,0,0,0-3.661,2.143,1.047,1.047,0,0,1-.238.149,4.187,4.187,0,0,1-1.458.6,48.717,48.717,0,0,1-7.233.655H92.3a.386.386,0,0,1-.387-.3.37.37,0,0,1,.327-.417l6.37-.6A1.374,1.374,0,0,0,99.8,46.56a1.33,1.33,0,0,0-1.458-1.19l-5.685-.06a5.252,5.252,0,0,1-1.369-.208,9.025,9.025,0,0,0-6.816.387,1.3,1.3,0,0,0-1.22-.625l-2.441.149A1.454,1.454,0,0,0,79.44,46.53l.387,5.418a1.464,1.464,0,0,0,1.577,1.31l2.441-.149a1.375,1.375,0,0,0,1.131-.774ZM82.3,51.977a.8.8,0,1,1,.833-.8A.826.826,0,0,1,82.3,51.977Zm18.692-6.131a36.617,36.617,0,0,1,3.453-1.637,1.359,1.359,0,0,1,1.339.119,7.088,7.088,0,0,0-.953.387,33.066,33.066,0,0,0-3.482,1.994l-.268.179v-.446a3.84,3.84,0,0,0-.119-.566l.03-.03Zm2.56-2.173c-.655.3-1.935.744-2.53,1.072l-.417.238a.411.411,0,0,1-.119.089,2.7,2.7,0,0,0-.625-.536c.566-.3,1.816-.714,2.381-.923a1.225,1.225,0,0,1,1.31.059ZM86.733,36.2h1.28a7.219,7.219,0,0,0,1.012,2.47l-.893.893a.594.594,0,0,0,0,.8L89.2,41.44a.594.594,0,0,0,.8,0l.893-.893a6.677,6.677,0,0,0,2.47,1.012v1.28a.565.565,0,0,0,.566.566h1.548a.565.565,0,0,0,.566-.566v-1.28a7.219,7.219,0,0,0,2.47-1.012l.893.893a.594.594,0,0,0,.8,0l1.072-1.072a.594.594,0,0,0,0-.8l-.893-.893a6.677,6.677,0,0,0,1.012-2.47h1.28a.565.565,0,0,0,.566-.566V34.089a.565.565,0,0,0-.566-.566h-1.28a7.219,7.219,0,0,0-1.012-2.47l.893-.893a.594.594,0,0,0,0-.8l-1.072-1.072a.594.594,0,0,0-.8,0l-.893.893a6.677,6.677,0,0,0-2.47-1.012v-1.28a.565.565,0,0,0-.566-.566H93.936a.565.565,0,0,0-.566.566v1.28a7.219,7.219,0,0,0-2.47,1.012l-.893-.893a.594.594,0,0,0-.8,0l-1.071,1.1a.594.594,0,0,0,0,.8l.893.893a6.677,6.677,0,0,0-1.012,2.47h-1.28a.565.565,0,0,0-.566.566v1.518a.565.565,0,0,0,.566.565Zm5.566.089,1.25-.03a.23.23,0,0,1,.238.208,1.13,1.13,0,0,0,.268.714,1.057,1.057,0,0,0,.744.3.7.7,0,0,0,.566-.208.874.874,0,0,0,.208-.566.962.962,0,0,0-.208-.655,1.835,1.835,0,0,0-.714-.446A5.859,5.859,0,0,1,92.835,34.6a1.847,1.847,0,0,1-.566-1.488,1.975,1.975,0,0,1,.6-1.458,2.461,2.461,0,0,1,1.429-.655v-.923a.2.2,0,0,1,.208-.208h.774a.2.2,0,0,1,.208.208v.953a2.313,2.313,0,0,1,1.31.744,2.167,2.167,0,0,1,.536,1.369.286.286,0,0,1-.238.268l-1.25.03a.23.23,0,0,1-.238-.208,1.194,1.194,0,0,0-.208-.625.749.749,0,0,0-.6-.268.716.716,0,0,0-.566.238,1.081,1.081,0,0,0,0,1.19,1.835,1.835,0,0,0,.714.446,6.707,6.707,0,0,1,1.786,1.042,2.2,2.2,0,0,1,0,2.947,2.474,2.474,0,0,1-1.28.625v.893a.2.2,0,0,1-.208.208h-.774a.2.2,0,0,1-.208-.208v-.863a2.676,2.676,0,0,1-1.607-.714A2.192,2.192,0,0,1,92,36.589a.319.319,0,0,1,.3-.3Z" fill="#fff"></path></g></g></svg>