<svg xmlns="http://www.w3.org/2000/svg" id="Layer_2" data-name="Layer 2" viewBox="0 0 120 120"><defs><style>.cls-1,.cls-2{fill:none;stroke-linecap:round;stroke-miterlimit:10;stroke-width:0.85px;}.cls-1{stroke:#000;}.cls-2{stroke:#020202;}</style></defs><path class="cls-1" d="M76.34,62.16V89.52A17.74,17.74,0,0,1,58.6,107.26H17.53"></path><polyline class="cls-2" points="71.08 66.02 76.34 59.8 81.97 66.02"></polyline><line class="cls-1" x1="88.19" y1="75.84" x2="110.18" y2="75.37"></line><polyline class="cls-1" points="104.57 70.72 110.19 75.37 104.57 80.3"></polyline><line class="cls-1" x1="88.19" y1="92.87" x2="110.18" y2="92.4"></line><polyline class="cls-1" points="104.57 87.75 110.19 92.4 104.57 97.33"></polyline><path class="cls-2" d="M62.25,79.1c-10.59.11-18,.17-19.17.17A33.27,33.27,0,1,1,76.34,46"></path><path d="M42.67,65.14H41a1.6,1.6,0,0,1-1.66-1.71c0-.46,0-.93,0-1.39A.5.5,0,0,0,39,61.5l-4.79-2a.55.55,0,0,0-.72.15q-.47.5-1,1a1.59,1.59,0,0,1-2.19,0c-.9-.87-1.79-1.76-2.66-2.67a1.56,1.56,0,0,1,.05-2.15c.34-.37.71-.72,1.07-1.07a.55.55,0,0,0,.14-.67c-.59-1.44-1.16-2.88-1.74-4.32a.51.51,0,0,0-.53-.36H25.32a1.54,1.54,0,0,1-1.65-1.54c0-.61,0-1.24,0-1.86s0-1.21,0-1.82a1.52,1.52,0,0,1,1.58-1.56h1.4a.53.53,0,0,0,.54-.36q1-2.46,2.09-4.9a.49.49,0,0,0-.13-.62l-.91-.91a1.59,1.59,0,0,1,0-2.3c.83-.85,1.67-1.7,2.53-2.53A1.59,1.59,0,0,1,33,31c.35.33.68.67,1,1a.58.58,0,0,0,.71.12c1.4-.57,2.81-1.13,4.22-1.68a.5.5,0,0,0,.35-.53,15.13,15.13,0,0,1,.06-1.78,1.41,1.41,0,0,1,1.38-1.24c1.28,0,2.57,0,3.85,0a1.55,1.55,0,0,1,1.47,1.53c0,.49,0,1,0,1.47a.55.55,0,0,0,.37.58l4.92,2.11a.5.5,0,0,0,.63-.13q.47-.5,1-1a1.6,1.6,0,0,1,2.33,0L57.76,34a1.59,1.59,0,0,1,0,2.33c-.35.37-.7.73-1.06,1.08a.52.52,0,0,0-.15.66c.56,1.39,1.11,2.79,1.66,4.19a.52.52,0,0,0,.57.36h1.44a1.58,1.58,0,0,1,1.65,1.67q0,1.78,0,3.57a1.57,1.57,0,0,1-1.53,1.54c-.51,0-1,0-1.52,0a.62.62,0,0,0-.65.43c-.66,1.58-1.32,3.15-2,4.72a.57.57,0,0,0,.15.76c.31.28.61.59.91.9a1.61,1.61,0,0,1,0,2.41c-.79.8-1.59,1.6-2.39,2.39a1.59,1.59,0,0,1-2.41,0c-.36-.35-.72-.71-1.07-1.07a.51.51,0,0,0-.63-.12c-1.42.57-2.83,1.14-4.26,1.69a.62.62,0,0,0-.41.63c0,.44,0,.88,0,1.32a1.61,1.61,0,0,1-1.7,1.71ZM25.14,47.84h1.5a2,2,0,0,1,2,1.31c.56,1.41,1.12,2.82,1.69,4.22a2,2,0,0,1-.51,2.5c-.34.34-.69.65-1,.94l2.69,2.7c.34-.36.68-.75,1.05-1.1A1.89,1.89,0,0,1,34.68,58l.64.28c1.34.58,2.67,1.18,4,1.72a2.06,2.06,0,0,1,1.45,2c0,.44,0,.88,0,1.31s.11.36.36.36H43.9l.69,0c0-.59,0-1.13,0-1.67a2,2,0,0,1,1.28-1.86l4.22-1.69a2,2,0,0,1,2.38.48l1.1,1.08,2.63-2.62c-.35-.35-.73-.72-1.1-1.1a1.82,1.82,0,0,1-.45-2.07q1.07-2.59,2.19-5.15a1.81,1.81,0,0,1,1.74-1.14H60c.21,0,.33-.05.33-.3,0-1,0-2.1,0-3.15,0-.27-.11-.33-.35-.32a13.84,13.84,0,0,1-1.44,0,1.88,1.88,0,0,1-1.78-1.27c-.56-1.4-1.1-2.8-1.67-4.19a2,2,0,0,1,.48-2.38l1.14-1.06-2.69-2.68c-.35.36-.71.75-1.09,1.11a1.81,1.81,0,0,1-2,.41q-2.6-1.08-5.17-2.21a1.85,1.85,0,0,1-1.16-1.77c0-.46,0-.91,0-1.36,0-.11-.16-.28-.25-.28-1.15,0-2.3,0-3.5,0,0,.55,0,1.06,0,1.58a1.84,1.84,0,0,1-1.19,1.82l-4.32,1.75A2,2,0,0,1,33,33.07c-.34-.35-.67-.72-1-1.06l-2.73,2.72c.33.29.69.59,1,.91A1.9,1.9,0,0,1,30.68,38q-1,2.43-2.08,4.86a2,2,0,0,1-1.92,1.3c-.42,0-.83,0-1.24,0-.21,0-.3.07-.29.3,0,.75,0,1.5,0,2.25C25.13,47,25.14,47.4,25.14,47.84Z"></path><path d="M42.76,36.73A9.28,9.28,0,1,1,33.5,46,9.22,9.22,0,0,1,42.76,36.73Zm0,17A7.75,7.75,0,1,0,35,46.36,7.7,7.7,0,0,0,42.74,53.75Z"></path></svg>