<svg xmlns="http://www.w3.org/2000/svg" width="40" height="39" viewBox="0 0 40 39"><g id="noun-bank-1010504" transform="translate(-159.595 -107.806)"><rect id="Rectangle_12226" data-name="Rectangle 12226" width="40" height="39" rx="5" transform="translate(159.595 107.806)" fill="#95519e"></rect><g id="noun-accurate-analytics-5349881" transform="translate(80.145 92.907)"><path id="Path_70058" data-name="Path 70058" d="M86.987,44.106H99.909l-2.4,1.386H85.6v-23.1h1.386V44.106Zm11.037,2.172,1.326.68-.554.32a.467.467,0,0,0,.466.811l.556-.321-.074,1.489,3.162-1.825.074-1.489,2.944-1.7a1.883,1.883,0,0,1-.463-.812l-2.948,1.7-1.326-.68Zm9.251-1.492a1.846,1.846,0,0,1-1.326-.559l1.553-.9a.467.467,0,1,0-.466-.811l-1.551.9a1.852,1.852,0,1,1,1.789,1.371Zm0,4.641a6.463,6.463,0,0,1-3.81-1.235l.352-.2.074-1.489.676-.391a4.162,4.162,0,1,0-1.4-2.439l-.682.394-1.326-.68-.345.2q-.032-.32-.032-.648a6.493,6.493,0,1,1,6.493,6.492ZM91.156,31.22a1.428,1.428,0,1,0,.575.738L95.787,28.8a1.43,1.43,0,0,0,2-.463l3.544.744a1.43,1.43,0,1,0,2.737-.733l4.174-3.733a1.427,1.427,0,1,0-.624-.7l-4.173,3.733a1.429,1.429,0,0,0-1.921.513l-3.544-.744a1.43,1.43,0,1,0-2.772.642Zm-2.034,6.148a.412.412,0,0,0-.411.411v4.193a.412.412,0,0,0,.411.411h2.511a.412.412,0,0,0,.411-.411V37.778a.412.412,0,0,0-.411-.411Zm18.564-9.994H110.2a.412.412,0,0,1,.411.411v8.507a7.4,7.4,0,0,0-3.332-.788V27.784a.411.411,0,0,1,.411-.411ZM101.5,34.018a.412.412,0,0,0-.411.411V38.82a7.461,7.461,0,0,1,3.333-2.747V34.429a.412.412,0,0,0-.411-.411H101.5ZM95.31,31.745a.412.412,0,0,0-.411.411v9.815a.412.412,0,0,0,.411.411h2.511a.412.412,0,0,0,.411-.411V32.156a.412.412,0,0,0-.411-.411Z" fill="#fff" fill-rule="evenodd"></path></g></g></svg>