<svg xmlns="http://www.w3.org/2000/svg" id="Layer_2" data-name="Layer 2" viewBox="0 0 120 120"><defs><style>.cls-1,.cls-2{fill:none;stroke-linecap:round;}.cls-1,.cls-2,.cls-3{stroke:#020202;stroke-miterlimit:10;}.cls-1{stroke-width:0.85px;}.cls-2{stroke-width:1px;}.cls-3{fill:#fff;}</style></defs><path class="cls-1" d="M22.77,27.26S12.13,25.84,10.24,39.2v45h93.61v-35"></path><line class="cls-2" x1="45.7" y1="27.22" x2="77.85" y2="27.22"></line><circle class="cls-1" cx="93.09" cy="36.13" r="16.66"></circle><path class="cls-1" d="M85.09,39.18l4.84,5.38a2.45,2.45,0,0,0,3.85-.27l10.07-14.9"></path><circle class="cls-3" cx="30.54" cy="27.22" r="1.37"></circle><path class="cls-1" d="M10.24,84.47h93.61a0,0,0,0,1,0,0V97.33a3.21,3.21,0,0,1-3.21,3.21H13.45a3.21,3.21,0,0,1-3.21-3.21V84.47a0,0,0,0,1,0,0Z"></path><circle class="cls-1" cx="57.05" cy="61.47" r="16.1"></circle><polyline class="cls-1" points="55.74 53.74 55.74 64.85 64.73 60.59"></polyline></svg>