<svg version="1.0" xmlns="http://www.w3.org/2000/svg"
 width="147.000000pt" height="141.000000pt" viewBox="0 0 147.000000 141.000000" 
 preserveAspectRatio="xMidYMid meet">

<g transform="translate(0.000000,141.000000) scale(0.100000,-0.100000)"
 fill="#95519E" stroke="none">
<path d="M57 1352 c-15 -17 -17 -76 -17 -649 0 -598 1 -631 18 -646 17 -15 78
-17 668 -17 546 0 653 2 670 14 18 14 19 34 22 628 1 337 0 623 -3 635 -13 56
19 53 -689 53 -620 0 -654 -1 -669 -18z m839 -281 c46 -22 71 -28 78 -21 21
21 27 8 24 -57 l-3 -68 -67 -3 c-67 -3 -79 3 -56 26 22 22 -57 47 -152 47 -76
0 -91 -3 -139 -30 -66 -37 -125 -102 -145 -162 -22 -65 -20 -161 4 -225 l20
-53 -35 -35 -36 -35 -19 25 c-30 37 -60 144 -60 209 1 114 44 223 120 301 115
118 314 152 466 81z m195 -183 c73 -142 61 -317 -29 -436 -50 -66 -87 -96
-169 -135 -63 -29 -76 -32 -168 -32 -92 0 -105 3 -169 33 -65 30 -70 31 -88
16 -17 -16 -18 -15 -18 54 l0 72 66 0 c60 0 65 -2 59 -19 -5 -15 3 -22 41 -35
250 -85 484 150 394 395 l-22 61 33 34 c18 19 36 34 41 34 4 0 17 -19 29 -42z
m-298 -7 c5 -5 14 -34 18 -63 7 -44 5 -60 -12 -97 -29 -63 -23 -82 31 -96 25
-7 55 -17 68 -24 28 -15 29 -56 3 -71 -11 -6 -88 -10 -178 -10 -178 0 -201 7
-189 53 5 22 17 30 69 45 72 23 78 35 48 105 -16 38 -18 56 -12 98 8 52 21 67
66 80 22 6 73 -5 88 -20z"/>
</g>
</svg>