<svg xmlns="http://www.w3.org/2000/svg" id="Layer_2" data-name="Layer 2" viewBox="0 0 120 120"><defs><style>.cls-1{fill:none;stroke:#000;stroke-miterlimit:10;stroke-width:0.85px;}</style></defs><path class="cls-1" d="M113.06,48.56a7,7,0,0,0-7-7c-.17,0-.33,0-.5,0a8,8,0,0,0,.5-2.78,8.13,8.13,0,0,0-15.65-3.07,6.89,6.89,0,0,0-3.86-1.17,7,7,0,0,0-7,7c0,.09,0,.17,0,.26a7,7,0,0,0,1.78,13.69,6.53,6.53,0,0,0,1.33-.14h22a6.39,6.39,0,0,0,2.66,0h0A7,7,0,0,0,113.06,48.56Z"></path><path class="cls-1" d="M117.2,82.3a7,7,0,0,0-7-7c-.17,0-.33,0-.5.05a8,8,0,0,0,.5-2.78,8.13,8.13,0,0,0-15.65-3.07,7,7,0,0,0-10.83,5.8c0,.09,0,.17,0,.26a7,7,0,0,0,1.77,13.69,6.62,6.62,0,0,0,1.34-.14h22a6.62,6.62,0,0,0,1.34.14,6.45,6.45,0,0,0,1.33-.14h0A7,7,0,0,0,117.2,82.3Z"></path><path class="cls-1" d="M41.43,82.3a7,7,0,0,0-7-7c-.17,0-.33,0-.5.05a8.25,8.25,0,0,0,.5-2.78,8.13,8.13,0,0,0-15.65-3.07A7,7,0,0,0,8,75.32c0,.09,0,.17,0,.26A7,7,0,0,0,9.77,89.27a6.62,6.62,0,0,0,1.34-.14h22a6.62,6.62,0,0,0,1.34.14,6.53,6.53,0,0,0,1.33-.14h0A7,7,0,0,0,41.43,82.3Z"></path><path class="cls-1" d="M45.86,48.56a7,7,0,0,0-7-7c-.17,0-.33,0-.5,0a8,8,0,0,0,.5-2.78,8.13,8.13,0,0,0-15.65-3.07,6.89,6.89,0,0,0-3.86-1.17,7,7,0,0,0-7,7c0,.09,0,.17,0,.26A7,7,0,0,0,14.2,55.54a6.55,6.55,0,0,0,1.34-.14h22a6.62,6.62,0,0,0,1.34.14,6.45,6.45,0,0,0,1.33-.14h0A7,7,0,0,0,45.86,48.56Z"></path><circle class="cls-1" cx="60.58" cy="69.82" r="9.5"></circle><line class="cls-1" x1="68.42" y1="64.46" x2="79.11" y2="54.81"></line><line class="cls-1" x1="41.43" y1="84.15" x2="52.12" y2="74.5"></line><line class="cls-1" x1="43.14" y1="54.81" x2="52.75" y2="64.46"></line><line class="cls-1" x1="68.96" y1="74.5" x2="78.57" y2="84.15"></line></svg>