<svg version="1.2" xmlns="http://www.w3.org/2000/svg" viewBox="0 0 1640 664" width="1640" height="664">
	<title>New Project</title>
	<style>
		.s0 { fill: #85248f } 
		.s1 { fill: #000000 } 
	</style>
	<path id="Sun" class="s0" aria-label="Sun"  d="m237.2 171.7v52q-25.5-14.5-48.2-21.6-22.7-7.2-43.8-7.2-36.6 0-56.6 16.9-19.8 16.9-19.8 48.1 0 26.1 13.1 39.6 13.3 13.2 50.2 21.4l27.1 6.6q50.3 11.3 74 40.1 24 28.5 24 76.6 0 57.3-32.4 86.9-32.2 29.6-94.7 29.6-23.5 0-50.2-6.4-26.4-6.3-54.9-18.7v-55q27.4 18.3 53.6 27.5 26.2 9.3 51.5 9.3 38.5 0 59.4-18 20.8-18 20.8-51.2 0-29.1-15.1-45.5-14.9-16.3-49.1-24.5l-27.3-6.4q-50.2-11.8-72.7-37.2-22.4-25.3-22.4-70.5 0-52.3 30.9-82.4 31.1-30.1 85.5-30.1 23.4 0 47.6 5 24.2 5 49.5 15.1zm84 264.6v-179.1h40.9v177.2q0 42 13.8 63.1 13.8 20.9 41.3 20.9 33.1 0 52.2-25.1 19.4-25.1 19.4-68.4v-167.7h40.8v295.8h-40.8v-45.4q-14.9 26.9-34.7 40.1-19.6 13-45.6 13-42.8 0-65.1-31.7-22.2-31.7-22.2-92.7zm102.9-186.2zm396.6 124.4v178.5h-40.8v-176.9q0-42-13.8-62.9-13.8-20.8-41.4-20.8-33.1 0-52.2 25.1-19.1 25-19.1 68.3v167.2h-41.1v-295.8h41.1v46q14.7-26.7 34.5-39.9 20-13.2 46-13.2 42.8 0 64.8 31.7 22 31.4 22 92.7z"/>
	<path id="Tec" class="s0" aria-label="Tec"  d="m777.4 201.6v-44.9h280.6v44.9h-117.8v349.4h-45.1v-349.4zm457.8 189.4v23.7h-188q2.7 50.2 25.3 76.6 22.9 26.2 63.6 26.2 23.5 0 45.5-6.9 22.2-6.9 44-20.6v45.9q-22 11.1-45.1 16.9-23.1 5.9-46.9 5.9-59.5 0-94.4-41.2-34.7-41.2-34.7-111.5 0-72.6 32.9-115.1 33.1-42.8 89.1-42.8 50.2 0 79.3 38.6 29.4 38.3 29.4 104.3zm-186.7-14l145.8-0.3q-0.5-39.9-18.9-63.6-18.2-23.8-48.4-23.8-34.3 0-54.9 23-20.5 23-23.6 64.7zm432.9-110.4v45.4q-17.4-11.3-34.9-16.9-17.3-5.8-35.1-5.8-39.8 0-61.8 30.1-22 29.9-22 84 0 54.1 22 84.2 22 29.9 61.8 29.9 17.8 0 35.1-5.6 17.5-5.8 34.9-17.1v44.8q-17.1 9.6-35.6 14.3-18.2 4.8-38.9 4.8-56.2 0-89.3-42-33.1-42-33.1-113.3 0-72.4 33.3-113.8 33.6-41.5 91.8-41.5 18.9 0 36.9 4.8 18 4.5 34.9 13.7z"/>
	<path id="®" class="s1" aria-label="®"  d="m1577 154.8q-9.6 0-17.9 3.4-8.2 3.5-15.1 10.3-6.9 6.9-10.4 15.4-3.5 8.3-3.5 17.8 0 9.5 3.5 17.8 3.5 8.3 10.4 15.2 6.9 6.9 15.1 10.4 8.3 3.4 17.9 3.4 9.7 0 17.9-3.4 8.4-3.5 15.3-10.4 6.8-6.8 10.2-15.1 3.4-8.3 3.4-17.9 0-9.7-3.4-18-3.5-8.3-10.2-15.2-6.9-6.8-15.3-10.3-8.2-3.4-17.9-3.4zm0-7.6q11.1 0 20.7 4.1 9.7 4 17.7 12 8 8 11.9 17.6 4 9.5 4 20.8 0 11.2-4 20.8-3.9 9.5-11.9 17.5-8 7.9-17.7 12-9.6 4-20.7 4-11.1 0-20.8-4-9.6-4.1-17.6-12-8-8-11.9-17.5-4-9.6-4-20.8 0-11.3 4-20.8 3.9-9.6 11.9-17.6 8-8 17.6-12 9.7-4.1 20.8-4.1zm-2 30.4h-9v20.2h9q8.1 0 11.2-2.3 3.3-2.3 3.3-7.8 0-5.5-3.3-7.8-3.2-2.3-11.2-2.3zm-20.3-7.6h20.8q12.9 0 19.3 4.4 6.4 4.3 6.4 13.2 0 6.3-3.9 10.4-3.8 4.1-10.9 5.3 1.8 0.6 4.2 3.5 2.5 2.8 5.9 8.1l10 16.3h-12.6l-9.4-15.3q-4.4-7-7.1-8.8-2.6-1.9-6.6-1.9h-4.8v26h-11.3z"/>
</svg>