<svg xmlns="http://www.w3.org/2000/svg" id="Layer_2" data-name="Layer 2" viewBox="0 0 120 120"><defs><style>.cls-1,.cls-2{fill:none;stroke:#020202;stroke-linecap:round;stroke-miterlimit:10;}.cls-1{stroke-width:0.85px;}.cls-2{stroke-width:1px;}</style></defs><path class="cls-1" d="M50.71,86.37v15.71A6.68,6.68,0,0,1,44,108.76H16.8a6.68,6.68,0,0,1-6.68-6.68V74.86a6.69,6.69,0,0,1,6.68-6.69H34.57"></path><path class="cls-2" d="M42.39,64.81V18.24a7,7,0,0,1,7-7h53.47a7,7,0,0,1,7,7V71.71a7,7,0,0,1-7,7H55.11"></path><line class="cls-2" x1="88.04" y1="32.26" x2="30.41" y2="88.47"></line><polyline class="cls-2" points="68.15 31.57 88.04 32.26 88.04 52.48"></polyline></svg>