<svg xmlns="http://www.w3.org/2000/svg" width="96" height="96" fill ="#903EA0" viewBox="0 0 96 96"><g id="Rapid_Time-to-value" data-name="Rapid Time-to-value" transform="translate(2305 -174)"><g id="Group_121" data-name="Group 121" transform="translate(-2705.237 -3417.237)"><circle id="Ellipse_1" data-name="Ellipse 1" cx="48" cy="48" r="48" transform="translate(400.237 3591.237)"></circle></g><g id="Value" transform="translate(-2284 196)"><path id="Path_925" data-name="Path 925" d="M42.159,38.33,32.77,43.748a3.2,3.2,0,0,0-1.879-1.4L20.2,39.487a7.2,7.2,0,0,0-5.388.664l-3.768,2.093v-1.85a.8.8,0,0,0-.8-.8H3.8a.8.8,0,0,0-.8.8V56.479a.8.8,0,0,0,.8.8h6.434a.8.8,0,0,0,.8-.8V54.27a7.176,7.176,0,0,0,4.273,1.405h7.69a7.251,7.251,0,0,0,3.594-.955L45.379,43.9a3.218,3.218,0,0,0-3.22-5.573ZM9.434,55.675H4.608V41.2H9.434ZM44.572,42.512,25.8,53.325a5.643,5.643,0,0,1-2.794.742h-7.69a5.59,5.59,0,0,1-3.98-1.65l-.293-.293V44.081l4.549-2.527a5.6,5.6,0,0,1,4.191-.516L30.475,43.9a1.608,1.608,0,1,1-.832,3.107l-7.064-1.893a.8.8,0,0,0-.417,1.554s7.619,2.007,7.9,2.007a3.164,3.164,0,0,0,3.194-3.351l9.7-5.6a1.609,1.609,0,0,1,2.188.581,1.634,1.634,0,0,1,.219.812A1.6,1.6,0,0,1,44.572,42.512Z" transform="translate(0 -7.028)" fill="#fff"></path><path id="Path_926" data-name="Path 926" d="M36.651,37.3A9.651,9.651,0,1,0,27,27.651,9.651,9.651,0,0,0,36.651,37.3Zm0-17.693a8.042,8.042,0,1,1-8.042,8.042,8.042,8.042,0,0,1,8.042-8.042Z" transform="translate(-4.698 -3.132)" fill="#fff"></path><path id="Path_927" data-name="Path 927" d="M17.413,13.042a.8.8,0,0,1-.8-.8.8.8,0,0,0-1.608,0A2.413,2.413,0,0,0,16.608,14.5v.952a.8.8,0,1,0,1.608,0V14.5a2.407,2.407,0,0,0-.8-4.678.8.8,0,1,1,.8-.8.8.8,0,0,0,1.608,0,2.413,2.413,0,0,0-1.608-2.265V5.8a.8.8,0,1,0-1.608,0v.952a2.407,2.407,0,0,0,.8,4.678.8.8,0,1,1,0,1.608Z" transform="translate(-2.349 -0.587)" fill="#fff"></path><path id="Path_928" data-name="Path 928" d="M16.042,18.085A8.042,8.042,0,1,0,8,10.042a8.042,8.042,0,0,0,8.042,8.042Zm0-14.476a6.434,6.434,0,1,1-6.434,6.434,6.434,6.434,0,0,1,6.434-6.434Z" transform="translate(-0.979 0)" fill="#fff"></path><path id="Path_929" data-name="Path 929" d="M38.217,32.259a1.609,1.609,0,0,1-1.608-1.608.8.8,0,0,0-1.608,0,3.217,3.217,0,0,0,2.413,3.1v.918a.8.8,0,1,0,1.608,0v-.918a3.211,3.211,0,0,0-.8-6.32,1.608,1.608,0,1,1,1.609-1.608.8.8,0,1,0,1.608,0,3.217,3.217,0,0,0-2.413-3.1V21.8a.8.8,0,0,0-1.608,0v.918a3.211,3.211,0,0,0,.8,6.32,1.608,1.608,0,0,1,0,3.217Z" transform="translate(-6.264 -3.719)" fill="#fff"></path><path id="Path_930" data-name="Path 930" d="M52.434,2a6.434,6.434,0,1,0,6.434,6.434A6.434,6.434,0,0,0,52.434,2Zm0,8.847a.8.8,0,0,1-.8-.8.8.8,0,0,0-1.609,0,2.413,2.413,0,0,0,1.609,2.265v.88a4.82,4.82,0,0,1,0-9.506v.88a2.407,2.407,0,0,0,.8,4.678.8.8,0,0,1,0,1.608Zm.8,2.34v-.88a2.407,2.407,0,0,0-.8-4.678.8.8,0,1,1,.8-.8.8.8,0,0,0,1.609,0,2.413,2.413,0,0,0-1.608-2.265v-.88a4.82,4.82,0,0,1,0,9.506Z" transform="translate(-8.417 0)" fill="#fff"></path></g></g></svg>