<svg xmlns="http://www.w3.org/2000/svg" fill="#95519e" width="96" height="96" viewBox="0 0 96 96"><g id="Rich_Out-of-the-box_Capabilities" data-name="Rich Out-of-the-box Capabilities" transform="translate(2217 -122)"><g id="Drive_Revenue" data-name="Drive Revenue" transform="translate(132)"><g id="Co-innovate" transform="translate(-44 -52)"><g id="Group_121" data-name="Group 121" transform="translate(-2705.237 -3417.237)"><circle id="Ellipse_1" data-name="Ellipse 1" cx="48" cy="48" r="48" transform="translate(400.237 3591.237)"></circle></g></g></g><g id="flexibility" transform="translate(-2191 147.877)"><path id="Path_931" data-name="Path 931" d="M194.313,6.76a6.55,6.55,0,1,0-13.1,0,6.55,6.55,0,0,0,13.1,0Zm-6.55,3.93a3.934,3.934,0,0,1-3.93-3.93,3.931,3.931,0,1,1,7.86,0A3.934,3.934,0,0,1,187.763,10.69Z" transform="translate(-165.388)" fill="#fff"></path><path id="Path_932" data-name="Path 932" d="M169.552,160.293a9.17,9.17,0,0,0-18.339,0v1.31h18.339Zm-15.588-1.31a6.551,6.551,0,0,1,12.836,0Z" transform="translate(-138.008 -137.813)" fill="#fff"></path><path id="Path_933" data-name="Path 933" d="M8.4,262.242H18.445v2.795H13.722l8.653,7.788,8.653-7.788H26.3v-2.795H36.348v4.472l8.4-8.4-8.4-8.4v4.472H8.4V249.91l-8.4,8.4,8.4,8.4Zm-2.62-1.853-2.077-2.077,2.077-2.077V257H38.968v-.767l2.077,2.077-2.077,2.077v-.767H23.685v8.034H24.2L22.375,269.3l-1.826-1.644h.516v-8.034H5.782Z" transform="translate(0 -227.973)" fill="#fff"></path></g></g></svg>