<svg xmlns="http://www.w3.org/2000/svg" fill="#95519e" width="96" height="96" viewBox="0 0 96 96"><g id="Simple_Quick_Deployment" data-name="Simple &amp; Quick Deployment" transform="translate(2349 -122)"><g id="Co-innovate" transform="translate(-44 -52)"><g id="Group_121" data-name="Group 121" transform="translate(-2705.237 -3417.237)"><circle id="Ellipse_1" data-name="Ellipse 1" cx="48" cy="48" r="48" transform="translate(400.237 3591.237)"></circle></g></g><g id="Page-1" transform="translate(-2325.985 145.015)"><g id="_062---Distribution-Strategy" data-name="062---Distribution-Strategy" transform="translate(-0.015 -0.015)"><path id="Shape" d="M46.965,22.339A3.283,3.283,0,0,0,43.8,24.8H41.177a15.507,15.507,0,0,0-3.98-9.594l1.857-1.856a3.277,3.277,0,0,0,3.98-5.142,3.36,3.36,0,0,0-4.643,0,3.248,3.248,0,0,0-.5,3.98l-1.855,1.858a15.507,15.507,0,0,0-9.594-3.98V7.448a3.283,3.283,0,1,0-1.642,0v2.621a15.507,15.507,0,0,0-9.594,3.98L13.351,12.19a3.248,3.248,0,0,0-.5-3.98,3.36,3.36,0,0,0-4.643,0,3.275,3.275,0,0,0,3.98,5.142l1.858,1.856a15.507,15.507,0,0,0-3.98,9.594H7.448a3.283,3.283,0,1,0,0,1.642h2.621a15.507,15.507,0,0,0,3.98,9.594L12.185,37.9a3.365,3.365,0,0,0-3.974.493,3.294,3.294,0,1,0,5.141.662L15.208,37.2a15.507,15.507,0,0,0,9.594,3.98V43.8a3.283,3.283,0,1,0,1.642,0V41.177a15.507,15.507,0,0,0,9.594-3.98l1.857,1.857a3.276,3.276,0,1,0,5.141-.662,3.365,3.365,0,0,0-3.974-.493L37.2,36.035a15.507,15.507,0,0,0,3.979-9.592H43.8a3.278,3.278,0,1,0,3.167-4.1ZM4.281,27.264a1.642,1.642,0,1,1,1.642-1.642A1.642,1.642,0,0,1,4.281,27.264ZM39.553,9.37a1.642,1.642,0,0,1,2.322,2.322,1.68,1.68,0,0,1-2.321,0,1.642,1.642,0,0,1,0-2.321ZM23.981,4.281a1.642,1.642,0,1,1,1.642,1.642A1.642,1.642,0,0,1,23.981,4.281ZM9.37,11.692a1.642,1.642,0,1,1,2.321,0,1.68,1.68,0,0,1-2.321,0Zm2.322,30.183a1.68,1.68,0,0,1-2.321,0,1.642,1.642,0,1,1,2.321,0ZM21.518,20.7H23.16A1.642,1.642,0,0,0,24.8,19.056v-.821h1.642v.821A1.642,1.642,0,0,0,28.085,20.7h1.642a1.642,1.642,0,0,0,1.642-1.642v-.821H33.01v4.1a.821.821,0,0,1-.821.821H19.056a.821.821,0,0,1-.821-.821v-4.1h1.642v.821A1.642,1.642,0,0,0,21.518,20.7Zm9.029,4.1-1.231,1.642H21.929L20.7,24.8ZM21.518,32.96a5.746,5.746,0,0,0,.821-2.955v-1.92h6.567V30a5.746,5.746,0,0,0,.821,2.955l1.013,1.693H20.506Zm-2.463,3.333H32.19a.821.821,0,0,1,.821.821v.328a13.835,13.835,0,0,1-14.775,0v-.328A.821.821,0,0,1,19.056,36.294Zm8.208,10.671a1.642,1.642,0,1,1-1.642-1.642A1.642,1.642,0,0,1,27.264,46.965Zm14.611-7.411a1.642,1.642,0,0,1,0,2.321,1.68,1.68,0,0,1-2.321,0,1.642,1.642,0,1,1,2.321-2.321Zm-7.353-3.192a2.463,2.463,0,0,0-1.84-1.659l-1.55-2.586A4.11,4.11,0,0,1,30.548,30V27.538l2.085-2.781a2.463,2.463,0,0,0,2.019-2.417v-4.1a1.642,1.642,0,0,0-1.642-1.642H31.369a1.642,1.642,0,0,0-1.642,1.642v.821H28.085v-.821a1.642,1.642,0,0,0-1.642-1.642H24.8a1.642,1.642,0,0,0-1.642,1.642v.821H21.518v-.821a1.642,1.642,0,0,0-1.642-1.642H18.235a1.642,1.642,0,0,0-1.642,1.642v4.1a2.463,2.463,0,0,0,2.019,2.417L20.7,27.538V30a4.11,4.11,0,0,1-.584,2.111L18.563,34.7a2.463,2.463,0,0,0-1.837,1.659,13.954,13.954,0,1,1,17.8,0Zm12.442-9.1a1.642,1.642,0,1,1,1.642-1.642A1.642,1.642,0,0,1,46.965,27.264Z" transform="translate(-0.985 -0.985)" fill="#fff"></path></g></g></g></svg>