<svg xmlns="http://www.w3.org/2000/svg" width="96" height="96" viewBox="0 0 96 96"><g id="Group_58" data-name="Group 58" transform="translate(-400.237 -3591.237)" fill="#903EA0"><circle id="Ellipse_1" data-name="Ellipse 1" cx="48" cy="48" r="48" transform="translate(400.237 3591.237)"></circle><g id="analytics" transform="translate(422.237 3613.237)"><g id="Group_63" data-name="Group 63" transform="translate(0 49.1)"><g id="Group_62" data-name="Group 62"><path id="Path_827" data-name="Path 827" d="M50.167,490.667H1.067a1.067,1.067,0,1,0,0,2.135h49.1a1.067,1.067,0,1,0,0-2.135Z" transform="translate(0 -490.667)" fill="#fff"></path></g></g><g id="Group_65" data-name="Group 65" transform="translate(2.135 36.291)"><g id="Group_64" data-name="Group 64"><path id="Path_828" data-name="Path 828" d="M28.8,362.667H22.4a1.068,1.068,0,0,0-1.067,1.067v12.809A1.068,1.068,0,0,0,22.4,377.61h6.4a1.068,1.068,0,0,0,1.067-1.067V363.734A1.068,1.068,0,0,0,28.8,362.667Zm-1.067,12.809H23.468V364.8h4.27v10.674Z" transform="translate(-21.333 -362.667)" fill="#fff"></path></g></g><g id="Group_67" data-name="Group 67" transform="translate(14.943 25.617)"><g id="Group_66" data-name="Group 66"><path id="Path_829" data-name="Path 829" d="M156.8,256h-6.4a1.068,1.068,0,0,0-1.067,1.067V280.55a1.068,1.068,0,0,0,1.067,1.067h6.4a1.068,1.068,0,0,0,1.067-1.067V257.067A1.068,1.068,0,0,0,156.8,256Zm-1.067,23.482h-4.27V258.135h4.27Z" transform="translate(-149.333 -256)" fill="#fff"></path></g></g><g id="Group_69" data-name="Group 69" transform="translate(27.752 29.887)"><g id="Group_68" data-name="Group 68"><path id="Path_830" data-name="Path 830" d="M284.8,298.667h-6.4a1.068,1.068,0,0,0-1.067,1.067v19.213a1.068,1.068,0,0,0,1.067,1.067h6.4a1.068,1.068,0,0,0,1.067-1.067V299.734A1.068,1.068,0,0,0,284.8,298.667Zm-1.067,19.213h-4.27V300.8h4.27Z" transform="translate(-277.333 -298.667)" fill="#fff"></path></g></g><g id="Group_71" data-name="Group 71" transform="translate(40.56 17.078)"><g id="Group_70" data-name="Group 70"><path id="Path_831" data-name="Path 831" d="M412.8,170.667h-6.4a1.068,1.068,0,0,0-1.067,1.067v32.021a1.068,1.068,0,0,0,1.067,1.067h6.4a1.068,1.068,0,0,0,1.067-1.067V171.734A1.068,1.068,0,0,0,412.8,170.667Zm-1.067,32.021h-4.27V172.8h4.27Z" transform="translate(-405.333 -170.667)" fill="#fff"></path></g></g><g id="Group_73" data-name="Group 73" transform="translate(2.135 19.213)"><g id="Group_72" data-name="Group 72"><path id="Path_832" data-name="Path 832" d="M25.6,192a4.27,4.27,0,1,0,4.27,4.27A4.274,4.274,0,0,0,25.6,192Zm0,6.4a2.135,2.135,0,1,1,2.135-2.135A2.137,2.137,0,0,1,25.6,198.4Z" transform="translate(-21.333 -192)" fill="#fff"></path></g></g><g id="Group_75" data-name="Group 75" transform="translate(14.943 8.539)"><g id="Group_74" data-name="Group 74"><path id="Path_833" data-name="Path 833" d="M153.6,85.333a4.27,4.27,0,1,0,4.27,4.27A4.274,4.274,0,0,0,153.6,85.333Zm0,6.4a2.135,2.135,0,1,1,2.135-2.135A2.137,2.137,0,0,1,153.6,91.737Z" transform="translate(-149.333 -85.333)" fill="#fff"></path></g></g><g id="Group_77" data-name="Group 77" transform="translate(27.752 12.809)"><g id="Group_76" data-name="Group 76"><path id="Path_834" data-name="Path 834" d="M281.6,128a4.27,4.27,0,1,0,4.27,4.27A4.274,4.274,0,0,0,281.6,128Zm0,6.4a2.135,2.135,0,1,1,2.135-2.135A2.137,2.137,0,0,1,281.6,134.4Z" transform="translate(-277.333 -128)" fill="#fff"></path></g></g><g id="Group_79" data-name="Group 79" transform="translate(40.56)"><g id="Group_78" data-name="Group 78"><path id="Path_835" data-name="Path 835" d="M409.6,0a4.27,4.27,0,1,0,4.27,4.27A4.274,4.274,0,0,0,409.6,0Zm0,6.4a2.135,2.135,0,1,1,2.135-2.135A2.137,2.137,0,0,1,409.6,6.4Z" transform="translate(-405.333)" fill="#fff"></path></g></g><g id="Group_81" data-name="Group 81" transform="translate(33.219 5.464)"><g id="Group_80" data-name="Group 80"><path id="Path_836" data-name="Path 836" d="M342.067,54.92a1.068,1.068,0,0,0-1.509,0L332.275,63.2a1.067,1.067,0,0,0,1.509,1.509l8.283-8.283A1.068,1.068,0,0,0,342.067,54.92Z" transform="translate(-331.963 -54.608)" fill="#fff"></path></g></g><g id="Group_83" data-name="Group 83" transform="translate(21.225 12.616)"><g id="Group_82" data-name="Group 82"><path id="Path_837" data-name="Path 837" d="M220.324,128.076l-6.857-1.955a1.068,1.068,0,0,0-.585,2.054l6.857,1.955a1.068,1.068,0,0,0,.585-2.054Z" transform="translate(-212.108 -126.078)" fill="#fff"></path></g></g><g id="Group_85" data-name="Group 85" transform="translate(7.599 13.737)"><g id="Group_84" data-name="Group 84"><path id="Path_838" data-name="Path 838" d="M85.884,137.675a1.068,1.068,0,0,0-1.5-.171l-8.048,6.417a1.067,1.067,0,0,0,.666,1.9,1.077,1.077,0,0,0,.664-.231l8.048-6.417A1.067,1.067,0,0,0,85.884,137.675Z" transform="translate(-75.935 -137.273)" fill="#fff"></path></g></g></g></g></svg>