<?xml version="1.0" encoding="UTF-8"?>
<svg id="Layer_1" data-name="Layer 1" xmlns="http://www.w3.org/2000/svg" viewBox="0 0 500 183">
  <defs>
    <style>
      .cls-1 {
        fill: #84298e;
      }

      .cls-1, .cls-2, .cls-3, .cls-4 {
        stroke-width: 0px;
      }

      .cls-1, .cls-2, .cls-4 {
        fill-rule: evenodd;
      }

      .cls-2 {
        fill: #00a29c;
      }

      .cls-3, .cls-4 {
        fill: #000;
      }
    </style>
  </defs>
  <path class="cls-2" d="M16.5,122.53l12.75-7.49,1.85,3.27.53.9.53.86.54.84.54.8.54.77.55.73.54.71.55.67.55.64.55.61.56.58.56.55.55.51.56.48.56.46.56.41.56.39.57.36.56.34.57.3.56.27.57.25.56.22.56.19.57.17.57.15.58.11.58.09.59.07.59.04h.6s.52,0,.52,0l.53-.02.52-.04.52-.05.51-.07.51-.08.5-.1.5-.11.49-.13.49-.14.49-.16.47-.18.48-.19.48-.21.47-.22.47-.24.47-.25.44-.26.43-.27.41-.27.39-.28.38-.29.36-.3.35-.31.34-.32.31-.32.32-.34.29-.35.27-.36.26-.36.25-.38.24-.4.24-.41.22-.4.19-.4.18-.41.17-.4.15-.41.14-.41.12-.42.11-.41.1-.42.08-.42.06-.42.05-.43.04-.42.02-.44v-.44s0-.5,0-.5l-.03-.49-.05-.49-.08-.48-.09-.49-.12-.49-.14-.49-.17-.49-.18-.49-.21-.49-.23-.5-.25-.5-.28-.5-.3-.51-.33-.51-.35-.51-.55-.73-.61-.77-.67-.79-.74-.82-.79-.84-.86-.87-.91-.89-.98-.92-1.04-.94-1.1-.96-1.16-.99-1.21-1-1.28-1.02-1.34-1.05-1.4-1.07-1.47-1.1-1.49-1.11-1.43-1.08-1.36-1.04-1.28-1.01-1.22-.97-1.14-.93-1.08-.89-1-.86-.94-.82-.88-.78-.81-.75-.74-.73-.67-.69-.61-.67-.55-.64-.47-.59-.68-.92-.63-.94-.59-.94-.55-.96-.51-.97-.46-.98-.43-1-.37-1.01-.34-1.02-.29-1.03-.25-1.04-.2-1.05-.15-1.06-.12-1.06-.06-1.07-.02-1.08.02-.86.04-.85.06-.83.09-.83.12-.83.14-.82.17-.81.2-.8.23-.79.25-.77.28-.77.31-.76.33-.75.36-.75.39-.73.41-.72.44-.71.46-.69.49-.67.5-.65.53-.63.55-.62.57-.59.59-.58.61-.56.63-.54.66-.51.67-.5.69-.48.71-.46.73-.44.75-.42.76-.39.77-.37.79-.34.79-.32.8-.29.81-.27.82-.24.83-.21.83-.19.84-.16.85-.14.85-.12.87-.09.87-.06.87-.04h.88s.94,0,.94,0l.93.04.93.07.92.1.91.13.9.16.91.18.88.22.88.25.88.27.86.3.86.33.85.36.84.39.83.41.82.45.83.49.84.53.85.58.83.62.84.67.84.71.84.75.84.79.84.84.84.87.84.93.85.96.84,1.01.85,1.04.85,1.09,2.39,3.15-12.05,9-2.25-2.89-.65-.81-.63-.77-.62-.73-.6-.69-.59-.66-.57-.61-.56-.56-.54-.53-.52-.49-.5-.44-.48-.41-.47-.36-.44-.32-.41-.28-.4-.25-.4-.22-.42-.22-.41-.2-.42-.19-.43-.17-.42-.15-.44-.15-.44-.12-.44-.12-.44-.09-.46-.09-.46-.07-.46-.05-.47-.04-.48-.02h-.47s-.63,0-.63,0l-.61.04-.58.06-.56.08-.54.1-.52.12-.51.14-.48.17-.47.18-.45.2-.44.23-.43.25-.42.27-.4.29-.39.32-.38.34-.36.36-.34.37-.31.37-.29.38-.26.39-.23.39-.22.4-.19.41-.17.41-.14.43-.12.44-.11.46-.08.47-.06.49-.03.5-.02.53v.31s.02.33.02.33l.02.32.03.32.04.31.05.32.05.31.07.31.07.31.08.31.09.31.09.3.11.31.12.31.12.31.13.29.13.29.16.3.17.31.19.32.21.33.22.33.24.34.26.35.28.36.29.36.31.37.33.38.35.38.36.39.39.4.36.36.2.18.3.26.39.31.45.37.53.42.6.47.67.52.74.56.82.61.88.66.95.71,1.01.75,1.09.8,1.16.85,1.22.89,1.3.94.78.58.78.58.77.57.75.57.74.57.71.56.71.56.69.55.68.55.65.55.65.54.62.54.61.54.6.53.59.54.57.52.55.53.54.53.52.52.51.52.49.52.48.51.47.51.45.51.44.5.42.5.41.5.39.49.38.5.36.49.35.5.33.49.6.96.57.95.53.97.49.96.46.97.42.97.38.98.34.98.31.99.26.99.22.99.19,1,.14,1,.1,1,.06,1.01.02.99v.71s-.03.71-.03.71l-.05.7-.06.69-.08.69-.1.68-.12.69-.13.68-.14.67-.17.66-.18.66-.2.65-.22.65-.23.64-.25.64-.27.63-.28.62-.31.62-.32.61-.34.6-.35.6-.37.59-.39.58-.41.57-.42.57-.44.56-.45.56-.47.55-.49.53-.5.54-.52.53-.54.53-.55.51-.56.5-.57.47-.57.46-.59.45-.59.42-.6.42-.61.4-.61.38-.62.37-.63.35-.64.34-.64.32-.65.3-.66.29-.68.27-.67.25-.68.24-.69.22-.7.21-.7.19-.71.17-.72.15-.72.14-.73.12-.73.11-.74.09-.75.07-.75.06-.77.04-.76.02h-.79s-1.18,0-1.18,0l-1.18-.06-1.16-.09-1.16-.14-1.14-.17-1.13-.22-1.12-.25-1.11-.29-1.09-.34-1.08-.38-1.06-.41-1.05-.46-1.03-.5-1.02-.53-1-.57-.99-.62-.98-.67-.97-.71-.96-.77-.94-.82-.93-.86-.91-.91-.9-.96-.88-1.01-.88-1.06-.87-1.1-.84-1.15-.84-1.19-.82-1.25-.82-1.3-.8-1.33-2.03-3.54h0ZM92.17,68.05h14.54v37.01s.01.71.01.71v.69s.02.67.02.67v.67s.03.65.03.65l.02.63.02.61.02.6.03.59.02.57.03.56.04.54.04.53.04.5.04.49.04.49.06.46.05.45.05.43.05.41.06.4.05.38.06.37.06.35.06.33.07.32.06.29.07.29.07.26.06.2.23.7.26.68.28.66.3.64.33.62.34.6.37.58.39.56.41.54.44.53.47.5.48.49.52.47.54.46.57.44.59.42.62.4.64.37.65.34.66.32.68.3.7.27.71.25.73.22.75.2.76.17.79.15.8.12.82.09.83.06.86.04h.88s.87,0,.87,0l.85-.04.83-.06.81-.09.79-.12.77-.14.75-.17.73-.19.72-.22.69-.24.68-.26.66-.29.64-.31.62-.33.61-.36.6-.39.58-.41.56-.42.52-.44.51-.45.48-.46.45-.48.44-.5.41-.51.39-.53.37-.54.35-.56.32-.58.3-.59.28-.61.26-.63.24-.65.06-.18.06-.22.07-.24.06-.27.07-.28.06-.31.07-.33.06-.36.06-.37.06-.39.05-.42.05-.44.05-.46.05-.47.05-.49.04-.52.04-.53.04-.55.04-.57.03-.59.03-.61.03-.63.03-.64.02-.66.02-.69v-.7s.03-.72.03-.72v-.74s.02-.75.02-.75v-1.56s0-.82,0-.82v-35.55h14.68v38.16s-.01.91-.01.91l-.02.9-.02.89-.03.87-.04.86-.05.84-.05.83-.05.81-.07.81-.08.79-.08.77-.09.76-.1.75-.1.74-.11.72-.12.71-.12.7-.13.69-.14.67-.14.66-.15.65-.16.64-.17.62-.18.61-.18.6-.2.58-.2.58-.22.55-.22.55-.22.54-.24.53-.49.99-.52.97-.56.94-.58.92-.61.89-.64.87-.68.84-.7.81-.73.79-.77.75-.79.73-.82.69-.85.67-.89.65-.91.61-.93.58-.49.29-.49.28-.5.26-.51.25-.51.25-.53.23-.53.23-.54.22-.54.21-.54.2-.56.19-.57.18-.56.17-.58.16-.58.15-.59.15-.6.14-.59.12-.61.12-.62.11-.61.11-.63.09-.63.09-.63.07-.64.07-.66.06-.65.05-.66.04-.67.03-.67.02-.68.02h-1.38l-.67-.02-.68-.02-.67-.03-.66-.04-.66-.05-.65-.05-.64-.07-.64-.07-.63-.09-.62-.09-.62-.11-.62-.11-.61-.12-.6-.12-.59-.14-.59-.15-.59-.15-.57-.16-.57-.17-.56-.18-.56-.19-.56-.2-.55-.21-.53-.23-.54-.23-.52-.23-.52-.24-.51-.26-.51-.27-.49-.28-.5-.29-.94-.59-.92-.61-.89-.65-.85-.68-.83-.7-.8-.73-.77-.76-.75-.79-.7-.82-.68-.85-.64-.87-.61-.9-.58-.93-.55-.95-.53-.97-.49-1.01-.23-.54-.23-.54-.22-.55-.21-.58-.2-.58-.2-.59-.19-.62-.18-.62-.17-.64-.16-.65-.15-.66-.15-.67-.14-.69-.13-.7-.12-.72-.12-.73-.11-.74-.1-.76-.09-.77-.09-.78-.08-.79-.07-.81-.07-.82-.05-.84-.06-.85-.05-.87-.04-.88-.03-.89-.02-.91-.02-.93v-.93s-.01-.95-.01-.95v-36.6h0ZM198.58,70.14h0l.92-.47.93-.44.94-.41.95-.38.96-.35.97-.33.98-.29.99-.26,1.01-.23,1.01-.2,1.02-.17,1.03-.15,1.05-.1,1.05-.08,1.06-.05,1.07-.02,1.08.02,1.07.05,1.07.09,1.04.12,1.04.16,1.01.19,1.01.22,1,.27.98.29.97.33.96.37.93.4.92.44.9.47.89.5.87.54.85.57.82.59.79.62.76.63.73.67.71.69.68.71.65.74.63.77.6.78.56.82.55.83.51.86.48.88.45.9.41.92.21.49.19.5.2.51.19.52.17.54.17.56.16.56.15.57.15.6.14.6.13.62.13.63.12.65.11.66.11.67.1.69.09.7.09.72.08.73.08.74.07.76.06.77.06.78.05.8.05.81.04.83.03.83.03.86.02.86v.88s.02.9.02.9v39.83h-14.41v-37.74s-.02-1.41-.02-1.41l-.02-1.35-.03-1.29-.04-1.22-.05-1.15-.05-1.08-.06-1.03-.07-.95-.08-.89-.08-.82-.09-.75-.09-.67-.11-.6-.1-.53-.11-.48-.21-.8-.22-.75-.24-.72-.25-.69-.27-.67-.29-.63-.3-.6-.33-.58-.33-.55-.36-.52-.37-.49-.39-.47-.4-.45-.43-.42-.44-.4-.46-.37-.47-.35-.49-.33-.52-.32-.54-.28-.56-.26-.58-.25-.6-.22-.63-.2-.65-.18-.68-.16-.7-.13-.72-.11-.75-.08-.78-.06-.79-.03-.82-.02-.94.02-.91.06-.91.09-.88.14-.88.17-.85.21-.85.25-.83.28-.83.32-.81.35-.8.4-.79.43-.78.48-.77.52-.76.55-.76.59-.74.63-.71.65-.67.67-.64.68-.61.7-.57.72-.54.73-.51.74-.47.77-.45.78-.41.8-.37.82-.35.84-.32.87-.28.88-.26.9-.06.26-.07.32-.07.34-.07.34-.06.37-.07.4-.06.41-.06.43-.05.45-.07.47-.05.49-.05.5-.05.52-.05.54-.04.56-.04.58-.04.59-.04.62-.04.63-.03.65-.02.67-.03.68-.02.7-.02.72-.02.73v.75s-.03.77-.03.77v.79s-.02.81-.02.81v.82s0,.84,0,.84v29.32h-14.48v-75.77h14.48v8.36l.68-.66.81-.74.83-.71.83-.68.86-.66.86-.63.88-.59.88-.56.9-.54.91-.5h0Z"/>
  <path class="cls-1" d="M20.02,123.45l8.26-4.85c5.82,10.51,12.55,15.76,20.17,15.76,3.25,0,6.32-.73,9.19-2.24,2.86-1.49,5.05-3.48,6.54-6.01,1.51-2.5,2.26-5.16,2.26-7.98,0-3.21-1.11-6.33-3.32-9.41-3.05-4.23-8.6-9.36-16.65-15.32-8.1-6.03-13.15-10.37-15.14-13.05-3.44-4.49-5.14-9.37-5.14-14.6,0-4.16.99-7.95,3.03-11.36,2.03-3.41,4.89-6.12,8.57-8.09,3.67-1.97,7.67-2.95,11.98-2.95,4.6,0,8.89,1.11,12.86,3.34,3.99,2.22,8.21,6.34,12.66,12.3l-7.92,5.92c-3.66-4.76-6.79-7.91-9.36-9.42-2.58-1.51-5.4-2.28-8.42-2.28-3.93,0-7.13,1.18-9.64,3.52-2.48,2.33-3.72,5.21-3.72,8.63,0,2.08.43,4.09,1.31,6.05.9,1.95,2.51,4.06,4.83,6.36,1.29,1.2,5.48,4.39,12.57,9.53,8.42,6.11,14.19,11.54,17.33,16.3,3.12,4.77,4.7,9.54,4.7,14.34,0,6.94-2.69,12.94-8.04,18.07-5.37,5.09-11.87,7.64-19.55,7.64-5.91,0-11.26-1.53-16.06-4.63-4.81-3.1-9.23-8.29-13.29-15.56h0ZM94.78,70.6h9.32v32.99c0,8.05.45,13.59,1.33,16.62,1.34,4.32,3.84,7.73,7.56,10.26,3.72,2.5,8.17,3.77,13.34,3.77s9.52-1.24,13.1-3.68c3.59-2.44,6.07-5.65,7.45-9.64.93-2.73,1.38-8.5,1.38-17.33v-32.99h9.45v34.69c0,9.72-1.15,17.06-3.45,22-2.33,4.94-5.81,8.8-10.45,11.59-4.65,2.79-10.49,4.19-17.49,4.19s-12.87-1.4-17.56-4.19c-4.7-2.79-8.19-6.69-10.52-11.68-2.3-5.01-3.47-12.52-3.47-22.56v-34.04h0ZM178.27,70.6h9.25v12.67c3.7-4.85,7.81-8.48,12.3-10.88,4.49-2.39,9.38-3.61,14.69-3.61s10.13,1.35,14.31,4.03c4.15,2.68,7.24,6.3,9.2,10.83,1.99,4.55,2.98,11.64,2.98,21.23v36.37h-9.18v-33.71c0-8.13-.37-13.56-1.05-16.29-1.11-4.68-3.17-8.18-6.21-10.55-3.05-2.35-7.01-3.55-11.91-3.55-5.6,0-10.61,1.82-15.03,5.46-4.42,3.66-7.36,8.15-8.76,13.51-.88,3.5-1.33,9.91-1.33,19.21v25.9h-9.25v-70.65h0Z"/>
  <polygon class="cls-2" points="239.85 57.59 239.85 43.17 298.42 43.17 298.42 57.59 276.73 57.59 276.73 143.81 261.61 143.81 261.61 57.59 239.85 57.59 239.85 57.59"/>
  <polygon class="cls-1" points="242.46 55.03 242.46 45.74 295.8 45.74 295.8 55.03 274.11 55.03 274.11 141.25 264.21 141.25 264.21 55.03 242.46 55.03 242.46 55.03"/>
  <path class="cls-2" d="M365.99,127.44l-.56.85-.57.83-.59.81-.6.77-.6.76-.62.74-.62.72-.64.69-.65.67-.66.65-.67.63-.69.6-.69.58-.71.56-.71.55-.72.52-.73.51-.75.5-.74.47-.77.46-.77.43-.79.42-.79.41-.81.37-.81.37-.83.34-.84.33-.86.3-.87.29-.88.27-.89.25-.91.22-.92.21-.93.19-.94.17-.95.15-.97.13-.97.11-.99.09-1.01.07-1.01.04-1.02.03h-1.03s-1.15,0-1.15,0l-1.13-.03-1.12-.06-1.1-.08-1.09-.1-1.09-.13-1.06-.16-1.06-.17-1.04-.2-1.02-.23-1.01-.25-.99-.27-.98-.3-.97-.32-.95-.35-.93-.37-.93-.4-.9-.42-.9-.44-.87-.46-.86-.49-.85-.52-.83-.54-.81-.56-.79-.59-.78-.61-.76-.63-.74-.66-.73-.69-.71-.7-.7-.73-.67-.75-.64-.75-.63-.76-.6-.77-.59-.77-.56-.78-.54-.78-.53-.79-.51-.79-.48-.81-.47-.81-.44-.82-.42-.83-.4-.83-.38-.84-.36-.85-.34-.85-.32-.86-.3-.87-.28-.87-.25-.88-.24-.88-.22-.89-.2-.9-.17-.9-.16-.9-.13-.91-.12-.93-.09-.92-.07-.93-.05-.94-.03-.93v-.94s0-.89,0-.89l.02-.88.04-.88.06-.87.08-.86.1-.86.12-.86.13-.85.15-.84.16-.84.19-.83.2-.83.22-.83.24-.81.26-.81.27-.8.29-.8.31-.79.32-.78.35-.78.35-.77.38-.77.39-.76.42-.75.43-.75.44-.75.47-.73.48-.73.5-.72.52-.71.53-.71.54-.7.71-.87.73-.85.74-.82.77-.8.78-.77.8-.74.81-.72.84-.69.84-.66.86-.63.88-.61.89-.57.91-.55.93-.52.93-.49.96-.47.97-.44.98-.4,1-.39,1.02-.35,1.03-.33,1.04-.29,1.06-.27,1.07-.24,1.08-.2,1.09-.18,1.11-.16,1.11-.13,1.14-.1,1.14-.06,1.16-.04,1.17-.02,1.2.02,1.19.04,1.17.07,1.17.1,1.15.12,1.14.16,1.12.18,1.12.21,1.1.24,1.09.27,1.07.3,1.06.34,1.04.36,1.03.39,1.01.42,1,.45.98.48.97.5.95.53.93.57.92.59.9.62.89.65.87.67.85.71.84.73.82.76.8.79.79.81.77.84.75.86.74.89.51.65.49.66.49.67.47.69.46.69.43.71.41.72.42.73.38.74.38.74.34.76.35.76.32.77.31.78.29.79.28.8.25.81.24.81.23.83.21.84.19.85.17.86.17.86.15.87.13.89.11.89.09.89.08.91.07.92.05.93.03.93.07,3.53h-64.55v.21s.09.68.09.68l.09.66.1.66.12.65.13.65.14.63.16.62.17.61.18.61.2.59.2.59.23.58.23.57.25.56.26.55.26.54.29.54.3.52.31.52.32.51.34.5.35.5.37.49.38.48.38.48.41.47.42.45.43.46.44.44.46.43.45.41.46.39.46.39.48.37.48.36.49.34.49.33.49.31.5.3.51.28.51.27.52.26.53.24.53.23.53.21.55.21.55.18.56.17.56.16.58.15.58.13.59.12.59.1.6.09.61.08.62.06.62.05.63.04.64.02h.65s.63,0,.63,0l.62-.02.63-.03.61-.05.62-.06.61-.07.62-.09.62-.1.6-.12.61-.12.6-.15.61-.15.6-.17.6-.18.59-.2.59-.21.59-.22.59-.23.57-.25.56-.25.55-.25.54-.27.52-.27.5-.28.49-.28.49-.3.46-.3.46-.31.44-.32.43-.33.42-.33.41-.34.4-.36.41-.37.41-.42.42-.44.43-.48.45-.52.45-.54.46-.57.46-.61.47-.64.49-.67.49-.7.5-.73.5-.76.5-.8,1.8-2.91,12.25,6.35-1.68,3.19-.52.94-.53.91-.54.89-.55.86h0ZM352.54,90.74h0l-.36-.55-.36-.53-.37-.51-.38-.48-.4-.47-.41-.46-.44-.46-.44-.45-.47-.43-.48-.42-.49-.41-.52-.4-.53-.39-.55-.38-.57-.36-.59-.36-.6-.34-.62-.34-.64-.32-.66-.32-.66-.29-.67-.28-.67-.25-.68-.24-.68-.22-.68-.2-.69-.18-.69-.16-.7-.14-.69-.13-.71-.11-.72-.08-.71-.07-.72-.05-.73-.03h-.73s-.6,0-.6,0l-.6.02-.6.03-.58.03-.58.06-.57.06-.56.08-.56.08-.55.11-.55.11-.54.12-.54.13-.52.15-.52.16-.52.17-.51.18-.51.19-.5.21-.5.22-.49.23-.49.24-.48.26-.48.26-.47.28-.46.29-.47.3-.46.31-.45.33-.45.34-.44.34-.44.36-.43.37-.61.56-.58.59-.57.62-.55.66-.53.69-.52.74-.51.78-.48.81-.48.85-.46.89-.43.93-.42.98-.4,1.02v.03s46.46,0,46.46,0l-.02-.07-.27-.75-.28-.73-.3-.7-.3-.68-.31-.65-.32-.62-.33-.6-.35-.58h0ZM459.33,86.01h0l-11.53,7.04-2.02-2.56-.58-.69-.58-.66-.6-.64-.61-.61-.61-.59-.63-.57-.63-.55-.66-.52-.66-.5-.67-.47-.68-.45-.69-.43-.71-.41-.72-.39-.73-.36-.74-.34-.76-.32-.78-.3-.78-.27-.8-.25-.81-.24-.83-.21-.84-.19-.85-.17-.87-.14-.88-.12-.9-.1-.91-.08-.93-.06-.94-.03-.96-.02h-.76s-.75.03-.75.03l-.75.04-.74.05-.72.07-.72.07-.71.1-.69.11-.69.13-.68.14-.67.16-.66.16-.65.19-.64.2-.64.21-.62.23-.61.24-.61.26-.61.27-.59.29-.58.3-.58.32-.57.33-.56.35-.56.36-.54.38-.54.39-.53.41-.52.42-.52.44-.51.45-.51.47-.49.48-.48.48-.46.5-.44.5-.43.5-.41.51-.39.51-.38.52-.37.52-.34.53-.33.53-.31.54-.3.55-.29.55-.26.56-.26.57-.23.57-.22.58-.2.59-.2.59-.18.6-.16.6-.14.61-.14.62-.12.63-.11.63-.08.64-.06.65-.06.66-.04.66-.02.67v.67s0,.89,0,.89l.04.87.08.87.1.85.13.85.16.84.18.84.22.82.24.83.27.81.3.81.33.8.36.81.38.8.41.8.45.78.47.77.48.74.51.72.53.69.55.68.57.65.59.63.61.6.63.59.66.57.67.54.69.52.72.51.74.49.76.46.78.44.8.41.82.39.82.36.85.34.84.3.86.29.88.25.89.22.9.21.92.18.93.15.94.12.96.1.97.07.99.04h1.01s.91,0,.91,0l.91-.04.89-.05.88-.08.87-.1.86-.12.84-.15.83-.16.82-.19.81-.21.8-.24.79-.25.77-.28.77-.29.76-.32.74-.34.73-.37.72-.38.72-.41.7-.43.7-.46.68-.48.68-.5.67-.52.65-.55.65-.57.64-.6.63-.61.62-.65.61-.67.6-.69,2.11-2.54,11.53,7.46-2.2,3.13-.74.98-.76.95-.8.92-.83.9-.86.86-.89.83-.92.81-.95.78-.98.75-1,.72-1.03.69-1.06.66-1.09.63-1.12.6-1.14.57-.59.28-.59.27-.59.26-.59.25-.61.24-.6.22-.61.22-.62.22-.62.2-.63.2-.63.19-.64.18-.64.17-.64.16-.64.15-.65.15-.66.13-.66.12-.66.12-.67.1-.68.1-.68.09-.68.08-.69.07-.69.06-.7.06-.7.04-.7.04-.71.03-.71.03-.72.02h-.73s-1.11,0-1.11,0l-1.1-.03-1.09-.05-1.08-.08-1.08-.1-1.06-.12-1.05-.15-1.04-.16-1.03-.19-1.02-.21-1.01-.24-1-.25-.98-.27-.98-.3-.96-.32-.95-.34-.95-.37-.92-.39-.91-.41-.9-.44-.9-.46-.88-.47-.87-.5-.85-.53-.84-.54-.83-.57-.82-.58-.81-.61-.79-.63-.78-.66-.76-.67-.75-.69-.74-.71-.71-.73-.69-.73-.66-.75-.64-.75-.62-.76-.6-.77-.58-.78-.56-.8-.53-.81-.51-.81-.48-.83-.46-.84-.44-.85-.41-.86-.4-.86-.36-.87-.34-.89-.32-.9-.3-.9-.27-.92-.25-.93-.22-.93-.2-.94-.18-.95-.16-.96-.13-.97-.11-.97-.08-.99-.06-.99-.03-1v-1.01s0-.68,0-.68l.02-.68.02-.67.04-.68.05-.67.06-.67.07-.66.09-.66.09-.66.1-.66.11-.65.12-.65.14-.65.15-.65.16-.64.17-.64.18-.63.19-.63.21-.63.21-.62.22-.63.24-.62.25-.62.26-.61.27-.61.27-.61.29-.61.31-.6.31-.59.33-.6.33-.59.35-.59.71-1.14.75-1.13.78-1.09.82-1.07.84-1.03.89-1,.91-.97.96-.93.98-.9,1.01-.87,1.05-.84,1.08-.8,1.12-.77,1.14-.74,1.18-.71,1.2-.67.62-.32.61-.31.63-.3.63-.3.63-.28.64-.27.64-.26.64-.25.65-.24.66-.23.66-.22.67-.21.67-.2.67-.19.67-.18.68-.17.68-.17.69-.14.69-.14.7-.13.71-.11.7-.11.7-.1.72-.08.72-.08.73-.07.72-.06.73-.04.73-.04.74-.02.74-.02h.74s.95,0,.95,0l.93.03.93.05.94.06.92.08.93.1.91.11.92.14.91.15.91.16.91.19.9.2.9.22.88.24.89.26.89.27.87.29.84.31.83.31.82.32.8.33.79.35.77.35.76.37.74.38.73.39.7.4.7.42.69.41.67.44.65.45.64.46.63.49.62.5.6.51.59.52.57.54.57.56.55.57.54.59.53.6.52.62.5.63.49.65.48.66.47.68.45.69,1.78,2.85h0Z"/>
  <path class="cls-1" d="M358.51,117.69l7.79,4.03c-2.55,4.94-5.5,8.91-8.84,11.95-3.37,3.04-7.13,5.34-11.31,6.91-4.19,1.57-8.94,2.37-14.21,2.37-11.74,0-20.9-3.77-27.51-11.33-6.61-7.55-9.9-16.08-9.9-25.61,0-8.95,2.79-16.96,8.39-23.95,7.08-8.91,16.58-13.39,28.48-13.39s22.05,4.59,29.35,13.72c5.22,6.45,7.86,14.5,7.95,24.14h-64.65c.15,8.24,2.84,14.98,7.99,20.23,5.17,5.25,11.53,7.89,19.11,7.89,3.66,0,7.23-.62,10.68-1.88,3.45-1.26,6.41-2.93,8.82-5.01,2.42-2.06,5.05-5.43,7.87-10.06h0ZM358.51,98.68h0c-1.24-4.85-3.04-8.73-5.39-11.61-2.37-2.9-5.49-5.25-9.37-7.03-3.88-1.77-7.95-2.66-12.23-2.66-7.04,0-13.12,2.24-18.17,6.7-3.7,3.23-6.49,8.11-8.4,14.6h53.55ZM455.75,85.18h0l-7.33,4.47c-6.36-8.26-15-12.41-26-12.41-8.76,0-16.04,2.77-21.84,8.31-5.8,5.54-8.68,12.28-8.68,20.19,0,5.17,1.33,10,3.99,14.56,2.66,4.55,6.31,8.07,10.96,10.58,4.65,2.5,9.87,3.76,15.64,3.76,10.58,0,19.23-4.11,25.93-12.4l7.33,4.75c-3.45,5.08-8.06,8.99-13.85,11.78-5.81,2.79-12.39,4.19-19.79,4.19-11.37,0-20.8-3.55-28.3-10.64-7.49-7.12-11.23-15.74-11.23-25.91,0-6.85,1.73-13.21,5.25-19.06,3.5-5.87,8.3-10.43,14.44-13.73,6.11-3.28,12.98-4.95,20.55-4.95,4.76,0,9.34.73,13.79,2.15,4.42,1.44,8.17,3.31,11.26,5.59,3.09,2.3,5.72,5.21,7.88,8.77h0Z"/>
  <path class="cls-3" d="M471.23,36.8h0c3.38,0,6.44,1.36,8.67,3.54,2.22,2.18,3.6,5.19,3.6,8.5h0c0,3.33-1.38,6.34-3.61,8.52-2.22,2.18-5.28,3.53-8.66,3.53h-.01c-3.38,0-6.44-1.36-8.67-3.54-2.22-2.18-3.6-5.19-3.6-8.5h0c0-3.33,1.38-6.34,3.61-8.52,2.22-2.18,5.28-3.53,8.66-3.53h0ZM471.23,38.6h-.01c-2.87,0-5.48,1.15-7.36,3-1.89,1.85-3.06,4.41-3.06,7.23h0c0,2.83,1.17,5.39,3.06,7.24,1.89,1.85,4.49,3,7.37,3h.01c2.87,0,5.48-1.15,7.36-3,1.89-1.85,3.06-4.41,3.06-7.23h0c0-2.83-1.17-5.39-3.06-7.24-1.89-1.85-4.49-3-7.37-3h0Z"/>
  <path class="cls-4" d="M466.49,55.32v-12.94h5.84c1.18,0,2.07.12,2.68.35.61.23,1.1.64,1.47,1.23.36.59.55,1.24.55,1.95,0,.92-.3,1.69-.91,2.32-.61.63-1.54,1.03-2.81,1.2.46.22.81.43,1.05.64.51.46.99,1.03,1.45,1.72l2.29,3.52h-2.19l-1.74-2.69c-.51-.77-.93-1.37-1.26-1.78-.33-.41-.62-.7-.88-.86-.26-.17-.52-.28-.79-.35-.2-.04-.52-.06-.97-.06h-2.02v5.75h-1.74ZM468.23,48.09h3.75c.8,0,1.42-.08,1.87-.24.45-.16.79-.42,1.02-.78.23-.36.35-.74.35-1.16,0-.61-.22-1.12-.68-1.51-.45-.39-1.17-.59-2.15-.59h-4.17v4.28h0Z"/>
</svg>