<svg xmlns="http://www.w3.org/2000/svg" width="40" height="39" viewBox="0 0 40 39"><g id="noun-bank-1010504" transform="translate(-159.595 -107.806)"><rect id="Rectangle_12226" data-name="Rectangle 12226" width="40" height="39" rx="5" transform="translate(159.595 107.806)" fill="#95519e"></rect><g id="noun-verify-2709632" transform="translate(31.665 96.558)"><path id="Path_70060" data-name="Path 70060" d="M159.143,24.041c0-.84.023-1.683,0-2.526v-.037a.292.292,0,0,0-.288-.288,15.572,15.572,0,0,1-5.339-.946,15.742,15.742,0,0,1-4.318-2.417c-.357-.279-.713-.561-1.073-.84a.3.3,0,0,0-.406,0,28.047,28.047,0,0,1-2.6,1.907,15.616,15.616,0,0,1-5.106,2,15.465,15.465,0,0,1-3.026.3.29.29,0,0,0-.285.288V31.1a18.805,18.805,0,0,0,.109,2.67,10.255,10.255,0,0,0,5,7.387c.273.161.549.319.823.48l3.441,2,1.306.759c.083.049.167.1.253.147a.365.365,0,0,0,.388-.046l2.782-1.579,2.978-1.692.167-.095a10.274,10.274,0,0,0,5.17-8.282c.023-.345.02-.693.02-1.041V24.041Zm-4.962,3.2-.014.014c-.308.325-.636.636-.955.955l-1.95,1.95q-1.135,1.131-2.264,2.264l-2.644,2.644a.587.587,0,0,1-.814,0l-.48-.48L142.972,32.5c-.434-.434-.872-.872-1.309-1.306a.576.576,0,0,1,.814-.814c.161.161.319.322.48.48q1.044,1.044,2.086,2.086c.3.3.6.6.892.895.19-.187.383-.371.57-.558l6.859-6.859a.587.587,0,0,1,.814,0,.579.579,0,0,1,0,.814Z" transform="translate(0)" fill="#fff"></path></g></g></svg>