<?xml version="1.0" standalone="no"?>
<!DOCTYPE svg PUBLIC "-//W3C//DTD SVG 20010904//EN"
 "http://www.w3.org/TR/2001/REC-SVG-20010904/DTD/svg10.dtd">
<svg version="1.0" xmlns="http://www.w3.org/2000/svg"
 width="2000.000000pt" height="2000.000000pt" viewBox="0 0 2000.000000 2000.000000"
 preserveAspectRatio="xMidYMid meet">
<metadata>
Created by potrace 1.14, written by Peter Selinger 2001-2017
</metadata>
<g transform="translate(0.000000,2000.000000) scale(0.100000,-0.100000)"
fill="#000000" stroke="none">
<path d="M18740 12176 c-88 -21 -166 -64 -235 -131 -68 -67 -103 -126 -130
-220 -15 -50 -22 -105 -15 -125 0 -3 2 -25 4 -50 12 -196 194 -385 401 -417
185 -29 357 37 475 183 17 20 75 119 71 119 -1 0 3 14 9 30 19 47 22 192 5
254 -41 155 -166 294 -308 340 -83 28 -198 34 -277 17z m231 -79 c121 -36 221
-129 266 -247 12 -30 22 -62 22 -70 6 -93 5 -128 -7 -177 -8 -32 -17 -60 -21
-63 -3 -3 -13 -18 -20 -33 -25 -47 -78 -103 -133 -139 -174 -114 -401 -84
-541 71 -41 45 -87 130 -87 160 0 11 -4 22 -9 25 -13 9 -4 165 13 212 74 209
302 323 517 261z"/>
<path d="M18664 11958 c-7 -11 -7 -495 0 -506 3 -5 19 -7 35 -4 l30 4 3 112 3
111 55 1 c88 1 110 -15 194 -148 49 -77 67 -90 114 -79 21 6 20 9 -34 91 -31
47 -72 99 -91 116 -19 17 -29 31 -21 31 32 0 89 35 108 65 45 71 3 186 -74
204 -43 10 -316 12 -322 2z m318 -75 c11 -12 22 -37 23 -55 5 -67 -33 -89
-158 -92 -51 -1 -98 -1 -104 2 -9 3 -13 30 -13 88 l0 84 115 -3 c102 -3 118
-6 137 -24z"/>
<path d="M1868 12025 c-1 -1 -21 -5 -43 -8 -105 -15 -205 -44 -304 -89 -70
-32 -190 -106 -231 -143 -80 -73 -102 -97 -152 -162 -95 -123 -157 -270 -185
-438 -8 -49 -9 -256 -1 -305 10 -62 40 -175 49 -184 5 -6 9 -16 9 -23 0 -39
122 -250 187 -323 53 -61 109 -115 173 -170 86 -73 120 -103 134 -115 13 -12
249 -192 351 -267 158 -118 351 -285 453 -393 167 -176 233 -300 238 -449 2
-48 -1 -109 -7 -135 -13 -54 -77 -191 -90 -191 -5 0 -9 -5 -9 -10 0 -6 -24
-33 -52 -61 -53 -49 -191 -127 -251 -139 -1 0 -23 -7 -48 -14 -55 -17 -207
-19 -269 -4 -198 48 -376 203 -548 480 -33 53 -58 98 -56 101 3 2 -2 10 -11
17 -8 7 -15 18 -15 24 0 29 -22 34 -59 13 -20 -12 -37 -25 -39 -29 -2 -4 -8
-8 -13 -8 -9 0 -398 -226 -411 -238 -7 -7 76 -155 143 -256 21 -32 39 -60 39
-62 0 -2 6 -12 14 -21 8 -10 41 -52 74 -93 69 -86 147 -167 216 -225 65 -54
168 -124 184 -125 6 0 12 -4 12 -8 0 -6 16 -15 70 -37 3 -1 22 -9 43 -18 73
-33 107 -46 107 -42 0 3 17 -2 38 -9 154 -58 450 -67 662 -19 89 20 79 17 113
31 16 7 33 12 38 12 5 0 51 20 100 45 286 142 512 389 604 660 63 189 75 419
29 581 -8 28 -16 61 -19 73 -5 28 -75 192 -90 211 -6 8 -22 36 -36 63 -13 26
-27 47 -31 47 -5 0 -8 5 -8 11 0 18 -120 159 -220 259 -129 129 -168 163 -365
318 -5 4 -25 19 -44 32 -19 14 -42 30 -50 37 -9 7 -90 67 -181 134 -91 66
-184 136 -207 155 -23 19 -44 34 -47 34 -17 0 -147 130 -198 198 -87 117 -111
212 -97 382 4 39 62 140 106 181 41 39 84 70 103 74 3 1 19 7 35 14 17 6 37
14 45 17 28 11 185 13 230 3 87 -18 95 -20 109 -32 8 -7 15 -10 15 -7 1 3 27
-10 58 -27 32 -19 100 -76 154 -130 109 -110 107 -108 194 -220 39 -49 68 -79
75 -74 12 9 410 305 443 329 12 9 22 20 22 24 0 11 -70 102 -81 106 -5 2 -9 8
-9 14 0 27 -225 272 -319 348 -24 19 -48 40 -55 45 -51 45 -142 98 -256 148
-47 21 -154 53 -226 67 -52 11 -327 23 -336 15z"/>
<path d="M9614 11932 c-20 -3 -20 -8 -20 -290 l1 -287 430 1 c237 0 432 -3
435 -7 3 -4 5 -779 5 -1723 0 -1146 3 -1716 10 -1717 14 -1 556 -1 578 0 16 1
17 90 17 1724 l0 1723 426 0 c234 -1 429 1 433 4 9 6 11 570 2 571 -16 3
-2299 4 -2317 1z"/>
<path d="M8568 11016 c-1 -2 -45 -6 -96 -9 -51 -4 -96 -8 -100 -11 -4 -2 -28
-7 -55 -10 -26 -4 -58 -11 -72 -16 -14 -5 -25 -8 -25 -5 0 2 -15 -2 -34 -10
-18 -8 -36 -11 -40 -8 -3 4 -6 0 -6 -7 0 -7 -3 -11 -6 -8 -3 4 -22 -1 -42 -9
-60 -25 -147 -66 -152 -72 -3 -3 -21 -15 -40 -25 -53 -29 -179 -120 -234 -171
-28 -24 -52 -43 -54 -40 -3 3 -5 74 -5 160 0 107 -3 155 -11 156 -35 5 -566 3
-567 -1 0 -3 -1 -683 -2 -1512 -2 -1332 0 -1507 13 -1510 8 -2 139 -4 290 -3
l275 0 1 655 c1 594 8 962 18 1015 2 11 7 46 11 79 10 88 14 105 37 181 35
119 110 245 205 350 56 62 224 190 263 200 3 1 19 7 35 14 68 28 143 51 200
60 83 13 268 6 335 -13 30 -9 63 -18 72 -20 23 -6 105 -52 143 -82 92 -70 183
-239 210 -389 4 -22 9 -50 11 -62 13 -71 17 -245 21 -1068 2 -500 8 -912 13
-915 6 -4 511 -5 555 -1 7 1 10 299 9 899 -2 822 -5 981 -18 1082 -3 19 -7 58
-11 85 -15 119 -52 269 -86 350 -7 17 -13 32 -14 35 -6 22 -62 123 -92 169
-190 279 -507 458 -848 477 -44 3 -85 7 -92 9 -6 2 -13 2 -15 1z"/>
<path d="M13157 11015 c-1 -2 -36 -5 -77 -9 -83 -7 -132 -13 -170 -23 -14 -3
-32 -7 -40 -9 -108 -21 -344 -111 -362 -138 -4 -6 -8 -8 -8 -3 0 7 -43 -18
-125 -72 -22 -14 -42 -28 -45 -31 -3 -3 -23 -18 -45 -35 -41 -31 -181 -167
-225 -220 -174 -210 -301 -467 -349 -705 -18 -86 -19 -92 -26 -150 -11 -90
-12 -121 -3 -126 5 -3 5 -11 0 -17 -11 -14 -3 -292 8 -292 2 0 4 -13 14 -84 3
-23 9 -47 12 -52 3 -5 8 -22 10 -37 5 -27 20 -80 34 -117 5 -11 14 -36 21 -55
66 -183 234 -438 385 -585 87 -85 228 -195 245 -191 4 0 15 -6 25 -16 43 -38
222 -113 354 -148 42 -11 52 -14 99 -24 11 -3 41 -8 68 -12 26 -3 57 -8 68
-10 11 -2 69 -6 129 -10 61 -3 113 -7 118 -10 4 -3 8 -2 8 3 0 4 39 8 88 9
121 1 210 12 327 40 33 8 69 17 80 19 45 10 175 61 250 98 309 154 545 400
736 767 18 34 28 65 23 69 -5 5 -115 63 -244 129 l-236 120 -44 -71 c-56 -92
-160 -241 -171 -245 -5 -2 -9 -8 -9 -14 0 -17 -142 -151 -204 -192 -142 -94
-344 -167 -506 -182 -104 -9 -271 -3 -322 12 -9 3 -25 6 -35 8 -85 17 -221 73
-288 120 -90 63 -179 144 -225 205 -14 19 -35 45 -47 60 -26 30 -121 216 -126
246 -1 11 -6 26 -10 33 -5 6 -6 12 -2 12 3 0 1 9 -5 20 -6 11 -13 39 -16 62
-3 24 -9 54 -13 68 -4 14 -7 34 -7 45 1 20 8 20 1286 22 707 1 1287 2 1290 2
12 2 -8 396 -20 396 -1 0 -4 14 -6 30 -11 74 -58 243 -90 323 -77 191 -163
323 -324 495 -225 241 -557 412 -875 452 -27 3 -65 8 -84 11 -33 6 -289 13
-294 9z m230 -560 c32 -5 65 -9 73 -10 105 -15 343 -114 405 -170 7 -5 24 -19
40 -30 105 -74 240 -258 275 -373 4 -15 11 -34 14 -42 6 -13 -101 -15 -919
-15 -785 0 -925 2 -925 14 0 19 70 165 81 169 5 2 9 9 9 15 0 32 132 188 212
249 143 110 327 182 491 193 27 2 50 5 52 7 6 6 131 1 192 -7z"/>
<path d="M16777 11014 c-1 -1 -29 -5 -62 -8 -128 -12 -155 -17 -335 -61 -8 -2
-15 -4 -15 -5 0 -1 -8 -3 -17 -5 -79 -15 -410 -171 -438 -206 -3 -3 -24 -18
-47 -32 -75 -47 -195 -156 -293 -267 -55 -62 -168 -239 -216 -338 -44 -92
-106 -264 -117 -327 -3 -17 -8 -41 -11 -55 -20 -86 -40 -410 -26 -410 3 0 6
-19 6 -43 1 -23 4 -58 7 -77 4 -19 9 -53 12 -75 23 -151 119 -385 218 -530
107 -159 207 -261 424 -435 7 -6 16 -10 22 -10 5 0 11 -4 13 -8 7 -16 190
-114 288 -154 67 -27 152 -56 186 -62 10 -2 37 -9 59 -15 22 -6 58 -13 80 -16
22 -3 45 -8 52 -10 77 -26 458 -25 648 1 54 7 55 7 100 18 17 4 50 12 75 18
130 30 378 133 485 201 82 52 195 145 275 227 108 112 98 100 170 203 l55 78
-25 19 c-14 11 -30 20 -37 20 -6 0 -13 3 -15 8 -3 7 -95 72 -103 72 -2 0 -66
40 -141 90 -129 84 -139 88 -153 72 -9 -9 -41 -46 -71 -81 -99 -116 -218 -220
-310 -270 -224 -123 -392 -163 -660 -156 -80 2 -158 7 -175 11 -16 3 -39 8
-50 9 -11 2 -20 4 -20 5 0 1 -11 4 -25 6 -109 20 -370 145 -388 187 -2 4 -9 7
-15 7 -7 0 -34 22 -62 48 -186 178 -295 380 -333 622 -9 56 -9 261 0 315 53
321 256 592 563 752 62 32 163 70 225 84 19 4 46 10 60 13 63 15 116 19 250
20 80 1 161 -1 180 -5 19 -5 53 -11 75 -14 72 -10 81 -13 175 -45 90 -30 209
-88 241 -116 8 -8 19 -14 24 -14 25 0 181 -150 268 -258 32 -40 61 -71 65 -69
4 2 68 41 142 86 74 45 144 88 154 94 11 7 44 27 72 45 29 17 57 32 62 32 6 0
12 6 15 14 6 15 -91 171 -156 251 -43 52 -198 205 -208 205 -3 0 -17 9 -30 21
-77 67 -281 170 -441 223 -87 29 -116 37 -168 51 -3 0 -23 5 -45 9 -22 4 -51
10 -65 13 -14 3 -36 7 -50 8 -14 2 -25 4 -25 5 0 6 -391 20 -398 14z"/>
<path d="M3689 10911 c-3 -149 1 -1645 5 -1701 6 -78 16 -177 22 -220 2 -14 6
-45 9 -70 3 -24 10 -60 15 -80 5 -19 12 -48 15 -65 13 -66 16 -78 37 -133 12
-31 23 -63 24 -70 4 -20 96 -187 105 -190 5 -2 9 -10 9 -18 0 -8 5 -14 10 -14
6 0 10 -4 10 -10 0 -30 195 -222 288 -284 68 -45 199 -115 226 -121 6 -1 18
-5 26 -8 50 -18 108 -37 130 -42 14 -2 44 -9 67 -15 24 -5 46 -10 50 -9 5 1
10 0 13 -1 47 -19 380 -30 495 -16 99 12 196 30 259 48 23 6 46 12 51 13 28 6
172 68 222 96 202 112 366 283 470 488 42 84 90 212 99 267 2 16 7 40 11 54
11 46 17 77 28 160 3 25 8 61 10 80 14 101 18 350 19 1080 l0 805 -292 1
c-206 1 -292 -2 -293 -10 0 -6 -2 -405 -4 -886 -2 -481 -6 -902 -9 -935 -17
-193 -42 -286 -104 -384 -107 -168 -274 -276 -492 -317 -60 -11 -260 -10 -325
2 -122 22 -163 36 -258 85 -65 34 -92 54 -157 119 -96 97 -146 190 -174 329
-33 158 -35 227 -36 1197 l-1 801 -289 0 -290 0 -1 -26z"/>
</g>
</svg>
